<svg id="art" enable-background="new 0 0 64 64" viewBox="0 0 64 64" xmlns="http://www.w3.org/2000/svg"><g><path d="m49.8 40.4-.5.1z" fill="none"/><path d="m20.8 31.5-.2.4h.1-.1z" fill="none"/><path d="m39.7 23.1-.5-.4z" fill="none"/><path d="m39.1 23.5-.1.1z" fill="none"/><path d="m33.2 14.3v-2.4z" fill="none"/><path d="m47.3 46.1s-.1 0-.1-.1c0 .1.1.1.1.1z" fill="none"/><path d="m36 23.8v-.1z" fill="none"/><path d="" fill="none"/><path d="" fill="none"/><path d="m44.5 43.6c.1.1.2.1.3.1-.1 0-.1 0-.2-.1 0 0 0 0-.1 0z" fill="none"/><path d="m14.2 40.4c-.1 0-.1 0 0 0-.1 0 0 0 0 0z" fill="none"/><path d="m50.3 29.9.9-1.6z" fill="none"/><path d="m53.1 32.9-1.3.3z" fill="none"/><path d="m44.9 19.2.3-1.7.1-.7-.1.7z" fill="none"/><path d="m39.7 22.3c-.1.1-.1.1 0 0-.1 0 0 0 0 0z" fill="none"/><path d="m39.6 22.6v.2s0-.1 0-.2z" fill="none"/><path d="m43 17.9s-.1.1-.1.1c0-.1 0-.1.1-.1z" fill="none"/><path d="m42.8 18-3 4c0 .1-.1.1-.1.2 0-.1.1-.1.1-.2z" fill="none"/><path d="m10.8 32.9s.1 0 0 0c.1 0 .1 0 0 0z" fill="none"/><path d="m24.4 22.9c0-.1 0-.1 0 0 0-.1 0-.2 0-.2v.2c0-.1 0-.1 0 0z" fill="none"/><path d="m46 48.4.9.1z" fill="none"/><path d="m17.1 48.5.9-.1z" fill="none"/><path d="m18.7 16.8.1.7.3 1.7-.3-1.7z" fill="none"/><path d="m24.3 22.1c0-.1-.1-.1-.1-.2l-3-4 3 4c0 .1 0 .1.1.2z" fill="none"/><path d="m20 48.2h-.2z" fill="none"/><path d="m21.2 18s-.1-.1-.1-.1 0 0 .1.1z" fill="none"/><path d="m8.8 34 1.4 1.2z" fill="none"/><path d="m19.1 43.7c.1 0 .2-.1.3-.1 0 0-.1 0-.1.1 0 0-.1 0-.2 0z" fill="none"/><path d="m12.8 28.3.9 1.6z" fill="none"/><path d="m12.2 33.2-1.3-.3z" fill="none"/><path d="m16.8 46.1c-.1 0-.1 0-.1.1 0-.1.1-.1.1-.1z" fill="none"/><path d="m25 23.6-.1-.1z" fill="none"/><path d="m24.4 22.4c0-.1-.1-.1 0 0-.1-.1 0-.1 0 0z" fill="none"/><path d="m44 50.2h.1z" fill="none"/><path d="m44 48.2h.2z" fill="none"/><path d="m28 23.7v.1z" fill="none"/><path d="m18.9 43.8h.2c-.1 0-.3 0-.4 0z" fill="none"/><path d="m24.8 22.7-.5.4z" fill="none"/><path d="" fill="none"/><path d="m53.2 32.9c-.1 0-.1 0 0 0-.1 0 0 0 0 0z" fill="none"/><path d="m23.6 34.4c0 .1 0 .2-.1.3 0-.1 0-.2.1-.3z" fill="none"/><path d="m18.9 52.4h-.1z" fill="none"/><path d="m23.3 35s0 .1 0 0z" fill="none"/><path d="m40.5 34.6c0-.1 0-.2-.1-.3.1.2.1.3.1.3z" fill="none"/><path d="m40.8 35.1c-.1 0-.1-.1 0 0-.1-.1-.1 0 0 0z" fill="none"/><path d="m36.1 22.9c.1 0 .2 0 .3-.1-.1.1-.2.1-.3.1z" fill="none"/><path d="" fill="none"/><path d="m27.7 22.8c.1 0 .2.1.3.1-.2 0-.3 0-.3-.1z" fill="none"/><path d="m49.8 40.4s.1 0 0 0c.1 0 .1 0 0 0z" fill="none"/><path d="m45.1 52.4h.1z" fill="none"/><path d="m45.1 43.8h.2c-.1 0-.3 0-.4 0z" fill="none"/><path d="m46.9 48.5h.1z" fill="none"/><path d="m43.3 31.9h.1l-.2-.4.2.4z" fill="none"/><path d="" fill="none"/><path d="m53.8 35.2 1.4-1.2z" fill="none"/><path d="m40.9 35.3c.1 0 .1 0 0 0z" fill="none"/><path d="m17.1 48.5h-.1z" fill="none"/><path d="m16.6 48c.1.1.2.1.2.1l3.2-.4v-.9l-.6-.2-.6-.2-.8-.5-1.2.1c-.1 0-.1 0-.1.1l-1.7 1.3z" fill="#304b87"/><path d="m16 48.2.9.3h.1-.1z" fill="#304b87"/><path d="m18.9 52.4h-.1z" fill="#304b87"/><path d="m17.1 51.2 1.4.7h.1.1 1.3v-1.7h-.1l-1.3.2z" fill="#304b87"/><path d="m18.6 50.4 1.3-.2h-1-.1z" fill="#304b87"/><path d="m44.6 46.5-.6.2v.9l3.2.4h.2.1l1.6-.6-1.7-1.2s-.1 0-.1-.1l-1.3-.2-.8.3z" fill="#304b87"/><path d="m47.1 48.5h-.1.1l.9-.3z" fill="#304b87"/><path d="m45.1 52.4h.1z" fill="#304b87"/><path d="m45.3 51.9h.1.1l1.4-.7-1.4-.8-1.3-.2h-.1v1.7z" fill="#304b87"/><path d="m45.4 50.4-.2-.1h-.1-1z" fill="#304b87"/><path d="m32.7 14.1v-2.2c0-.1 0-.1 0-.1l-.7-1.4-.5 1.1v.1.1 2.4c.2-.1.5-.1.7-.1 0 0 .2 0 .5.1z" fill="#304b87"/><path d="m31.4 16.2c.1 0 .1 0 .2-.1-.1 0-.2 0-.2.1z" fill="#304b87"/><path d="m31.7 16.1h.2c-.1-.1-.2 0-.2 0z" fill="#304b87"/><path d="m32 16h.3c-.1 0-.2 0-.3 0z" fill="#304b87"/><path d="m33.2 11.8-1-1.8-.2.5.7 1.4v.1 2.2c.2 0 .4.1.5.2v-2.3c0-.2 0-.3 0-.3z" fill="#5df9e6"/><g fill="#304b87"><path d="m28.6 22.9c-.1-.1-.2-.2-.3-.3l-.6.2c.1 0 .2.1.3.1h-.1z"/><path d="m28.6 23.3-.2.1.2.3z"/><path d="m25.6 16.9v.2l1.8 4.6c.1.3.4.6.7.7h.1c-.3-.4-.4-.8-.4-1.3v-.1-.1c0-.6.2-1.1.6-1.5l-.3-.5.1-.5-.7-1.8s0-.1-.1-.1l-1.6-1.3z"/><path d="m28.4 19.4s.1-.1.1-.1l-.3-.8-.1.5z"/><path d="m19.4 18.7c0 .1 0 .2.1.2l2.3 3.1h.2c.6.1 1.1.3 1.5.8l.2.2c.1.1.1.1.1.2l.4-.1-.2.4c.2.3.3.7.2 1 .1.1.3.2.4.3l.2.2c.2 0 .3-.1.5-.1l-.1-.7-.2-.5-.1-.1-.2-.8-.5.4c0-.1 0-.1 0-.2 0-.1 0-.1 0-.2 0 0 0 0 0-.1s0-.1 0-.2 0 0 0-.1v-.1s0 0 0-.1-.1-.1-.1-.2l-3-4s-.1-.1-.1-.1l-1.9-.9z"/><path d="m25 23.6.1.7.1.7h.4c.2 0 .4 0 .6.1-.1 0-.2-.1-.3-.2z"/><path d="m25 23.5v-.1l.3-.2v-.2l.1-.1v-.1l.2-.2-.1-.2h-.1-.1l-.3.2z"/><path d="m13.8 22.3c.1.1.1.2.2.2l.7.5c0-.2 0-.5.1-.7.1-.5.3-.9.5-1.3s-.1 0-.1-.1l-2.2-.2z"/><path d=""/><path d="m13.8 29.3c.1.1.1.2.2.2l2.9 1.9.9.3.4.1.7.2.2.3c.1 0 .2 0 .2-.1l.9-.8-.3 1.3c.4 0 .9.1 1.3.3.1.1.3.1.4.2.1 0 .1.1.1.1.1.1.2.1.2.2 0 0 .1.1.1.1l.2.2c0 .1.1.1.1.2s.1.1.1.2.1.1.1.2c0 0 .1.1.1.2s.1.1.1.2c.3-.1.5-.3.7-.6-.1-.1-.2-.1-.2-.2-.3-.1-.6-.3-.8-.6l-.4-.4h-.1l-1.3-1 .1-.1h-.1l.2-.3-.1-.1-.3-.5-.5.8s0 0 0-.1 0-.1 0-.2c0-.1 0-.1 0-.2 0 0 0 0 0-.1s-.1-.1-.1-.2c0-.1-.1-.1-.1-.1-.1-.1-.1-.1-.2-.1l-4.3-2.8s-.1 0-.1-.1l-2.1-.1z"/><path d="m16.8 36-.6-.2z"/><path d="m13.7 34.7c-.1 0-.1 0 0 0-.1 0-.2 0-.2.1 0-.1 0-.1.2-.1-.1 0-.1 0 0 0z"/><path d="m15.5 35.6c-.1 0-.1-.1-.2-.1.1 0 .2 0 .2.1l.4.2z"/><path d=""/><path d="m8.7 33.5 1.3 1.1.1.1s.1.1.1.1l.5.1.3-.6c.2-.4.5-.7.9-.9 0 0 .1-.1.1-.1h.1l-1.3-.3c-.1 0-.1 0-.2 0z"/><path d="m18 35.3c-.1 0-.1 0-.2 0 .1-.1.2-.1.2 0z"/><path d="m19.1 43.7c.1 0 .1-.1.2-.1 0 .1-.1.1-.2.1z"/><path d="m20.2 43c-.2-.2-.3-.5-.4-.8v-.1l-2-.8c-.3.2-.7.3-1 .3s-.6-.1-.8-.2h-.1-.1c-.4-.2-.7-.4-1-.8l-.5-.1c-.1 0-.1 0-.2 0l-2 .6 1.4 1.1.1.1s.1.1.1.1l4.9 1c.3.1.7 0 .9-.2l.2-.2-.2.8.2-.2-.1.3h.4c.1-.5.1-.7.2-.9z"/><path d="m19.7 44.1c.2 0 .3 0 .3-.1 0-.1 0-.3 0-.4h-.4l-.1.4c.1.1.1.1.2.1z"/><path d="m19.9 24.7s0 .1 0 0z"/><path d=""/><path d="m25 32v-.1z"/><path d="m20.6 24.8.1.1-.1-.1.2-.3z"/><path d="m22.3 26c.1 0 .2 0 .3.1-.1-.1-.2-.1-.3-.1z"/><path d="m22.2 26c-.1 0 0 0 0 0z"/><path d="m19.3 26.2c-.1.1-.1.2-.1.2v.1s.1 0 .1-.1l.1-.2c0 .1 0 .1-.1 0l.2-.1z"/><path d="m17.6 23.6c.2.2.4.4.7.5.2 0 .3.1.4.3l1.3 1.5-.2.2.6.4.2-.2c0 .1-.1.2-.1.3l.5.3.3.3c.1.2.2.4.5.6.2.1.3.2.5.2 0-.3.1-.6.3-.8-.2 0-.4-.1-.5-.1l-.7-.3-.4-.8-.3-.5-.5-1.1-.3.4s0 0 0-.1 0-.1 0-.2c0-.1 0-.1 0-.2 0 0 0 0 0-.1s-.1-.1-.1-.2c0-.1-.1-.1-.1-.1-.1-.1-.1-.1-.2-.1l-2-1.3c-.3.3-.2.7.1 1.1z"/><path d="m21 26 .3.7.7.3c.2.1.3.1.5.1.1-.2.2-.3.3-.5 0-.1.1-.1.1-.2l-.3-.4c-.1 0-.2-.1-.3-.1h-.1s0 0-.1 0-.1 0-.2-.1l-.7-.5-.6-.3.1-.1h-.1l.2-.3-.1-.1-.3-.5-.2.4.5 1.1z"/><path d="m20.4 26.4-.6-.4-.3.3v-.1l-.1.2h.1l-.1.2s-.1 0-.1.1v.2.1l.2-.4.3.2.2-.2c0 .1-.1.2-.1.3z"/><path d="m21.2 27.7c.1.2.2.4.5.6.1.1.2.1.3.1h.1.2c0-.2 0-.4 0-.6-.2 0-.3-.1-.5-.2s-.4-.3-.5-.6c-.1-.1-.1-.2-.3-.3l-.5-.3c0 .3.1.5.2.8l.1.1c.3.1.3.3.4.4z"/><path d="m20.7 24.4h.1z"/><path d="m19.3 26.8.1.1.4-.3-.3-.2z"/><path d="m20 27v.3c0-.1 0-.2 0-.3z"/><path d="m20 26.7s0 .1 0 0z"/><path d="m22.2 28.4c-.1 0-.1 0-.2 0h-.1c-.1 0-.2-.1-.3-.1-.2-.1-.4-.3-.5-.6-.1-.1-.1-.2-.3-.3l-.1-.1c0 .1.1.2.2.3l1.4 1.7c0-.3-.1-.6-.1-.9z"/><path d="m17.3 22.4 2 1.3c.1 0 .1.1.2.1s.1.1.1.1c0 .1.1.1.1.2v.1.2.2.1l.3-.4-.2-.4.1-.1-1.9-2.4s0 0-.1 0h-.1s0 0-.1 0c-.1.3-.3.6-.4 1z"/><path d="m19.7 23.2c-.1-.1-.1-.3-.2-.4 0-.4-.2-.7-.5-1-.1 0-.1-.1-.2-.1 0 0 0 0-.1 0 0 0-.1 0-.1-.1h-.1-.1-.1-.1-.1l1.9 2.4-.1.1.2.4.2-.4z"/><path d="m21.2 25.4.7.5c.1 0 .1.1.2.1h.1.1c.1 0 .2 0 .3.1l-.1-.1c-.1-.1-.1-.1-.2-.2 0 0 0 0-.1 0s-.1-.1-.2-.1c-.1 0-.2-.1-.2-.1s0 0-.1 0-.1 0-.2 0c0 0 0 0-.1 0 0-.2 0-.2-.2-.2.1 0 .1 0 0 0z"/><path d="m20.7 24.9-.1.1.6.4.9-.7c.1-.1.1-.2.1-.2v-.1l-.2-.3-.3.2-.1-.1-.1.1-.1-.1-.4.3-.1.1-.1-.1z"/><path d="m19.8 24.5c0-.1 0-.1 0-.2 0 0 0 0 0-.1v.1z"/><path d="m19.7 24.1c0-.1-.1-.1-.1-.1s0 0 .1.1z"/><path d="m21.2 27.7c.1.2.2.4.5.6-.3-.2-.4-.4-.5-.6z"/><path d="m17.3 22.4 2 1.3z"/><path d="m19.9 24.7c0-.1 0-.1 0-.2z"/><path d="m22.3 26h-.1z"/><path d="m22.1 26c-.1 0-.1 0-.2-.1.1 0 .2 0 .2.1z"/><path d="m21.9 28.4c-.1 0-.2-.1-.3-.1.1 0 .2.1.3.1z"/><path d="m22 28.4h.2s-.1 0-.2 0z"/><path d="m26.3 27.3c.1 0 .1 0 0 0z"/><path d="m28.6 34.6c-.1.1-.2.3-.3.4-.3.2-.6.4-1 .4-.1 0-.2 0-.2 0l1.1 3.5.5.3v-4.6z"/><path d="m27 33.4c-.1 0 0 0 0 0z"/><path d=""/><path d="m26.1 27.1.2.3s.1-.1.1-.1-.1 0-.1-.1h-.1-.1c.1-.1.1-.1 0-.1z"/><path d="m26.3 27.3c0 .1 0 .1 0 0l.7.9c0-.2-.1-.4-.2-.5 0-.1-.1-.1-.1-.2 0 0 0 0 0-.1 0 0-.1-.1-.1-.1s0 0-.1-.1c0 0-.1 0-.1-.1.1.2 0 .2-.1.2.1 0 .1 0 0 0z"/><path d="m26.5 27.3c-.1 0-.1.1-.1.1 0-.1.1-.1.1-.1z"/><path d="m26.3 27.3c0 .1 0 .1 0 0z"/><path d="m26.9 33 .1.3-.2-.7c-.1.1-.1.1-.1.2v.1z"/><path d="m26.8 32.5-.4-2c0-.1 0-.1-.1-.2l-.8-1c-.1 0-.1 0-.2 0 .1.1.1.2.2.2.1.1.2.2.3.4l.6 1.9-.7.2v-.1l-.2.1c-.1 0-.1.1-.2.2 0 0 0 .1-.1.1l.6.2.3-.1s-.1.1-.1.2l.2.1z"/><path d="m25.4 29.4-.3-.4v.1c.1.1.1.3.2.4 0-.1.1-.1.1-.1z"/><path d="m24.9 28.8c.1.1.1.1 0 0 .1.1.1.2.1.2s0 0 0-.1z"/><path d="m26 32.6s-.1.1-.1.1v.1l.3-.1z"/><path d=""/><path d="m26.9 33.5c.1-.1.1-.1 0 0v-.1l-.1-.1.1-.3-.3-.1c-.1.1-.1.3-.1.4z"/><path d="m25.3 32.4v.1.1h-.2l.6-.2-.6-.2c.2.1.2.2.2.2z"/><path d="m25.8 33c0-.1.1-.2.1-.2s-.1.1-.1.2z"/><path d=""/><path d="m26.3 30.5.4 2 .2.7.1.1-.4-.2c0 .2 0 .4.1.6l.5 1.6h.2c.4-.1.7-.2 1-.4.1-.1.2-.2.3-.4v-.5c-.5-.4-.8-1-.8-1.7v-.1-.1-.1c-.1 0-.1 0-.2-.1 0 0 0 0-.1 0l.2-.1c0-.3.1-.6.3-.9l-.4.1v-.1h-.1l-.6-1.6v-.1c-.4.1-.8.2-1.2.2-.1 0-.3 0-.4-.1l.8 1c.1.1.1.2.1.2z"/><path d="m25.8 33.5c0-.1 0-.1 0-.2z"/><path d="m25.7 27.4h-.1z"/><path d="m25.9 27.5c0-.1 0-.1 0 0-.1-.1 0 0 0 0z"/><path d="m25.8 33v.2s0-.1 0-.2z"/><path d="m25.6 27.4h.1c-.1 0-.1 0-.1 0z"/><path d="m25.6 27.4h.1.2.1c.1 0 .3 0 .4-.1l-.2-.3c-.2 0-.4.1-.5.2s-.1.2-.1.2z"/><path d="m25.9 27.4s0 .1 0 0c0 .1-.1 0 0 0-.1 0-.1.1 0 0-.1 0-.2 0-.2 0h-.1c0 .4-.1.7-.2 1.1-.1.2-.2.3-.3.5l.4.4c.1 0 .3.1.4.1.4 0 .8-.1 1.2-.2 0-.1 0-.2 0-.4.1-.2.1-.4.1-.6l-.8-.9c-.2 0-.4 0-.5 0z"/><path d="m25.7 27.4h.1z"/><path d=""/><path d="m25.8 27.4h-.1z"/><path d=""/><path d="m26.3 27.4c-.1.1-.3.1-.4.1.1-.1.3-.1.4-.1z"/><path d="m25.6 27.3s-.1.1-.1.1h.1z"/><path d="m25.3 28.5c.1-.3.2-.7.2-1.1h-.1c-.4.3-.6.9-.5 1.5l.1.1c.2-.2.3-.4.3-.5z"/><path d="m25.6 27.4h-.1z"/><path d="m25.6 27.4h-.1z"/><path d="m25 32.8.2-.1z"/><path d="m26.9 33.5c.1-.1.1-.1 0 0 0-.1 0 0 0 0z"/><path d="m32 41.5c0-.1.1-.1.1-.1l-.1-.7-.1.7z"/><path d="m30.9 32.9c-.1.1-.1.1-.2.2.1 0 .2-.1.2-.2z"/><path d="m31.2 34.6.8 2.6 1.2-4s0 0 0-.1c0 0 0 0 0-.1 0 0-.1-.1-.1-.1-.1.1-.1.1-.2.1-.3.1-.6.2-.9.2-.2 0-.3 0-.5-.1-.2.3-.3.6-.3.9z"/><path d="m30.8 33.2c0 .1-.1.1-.1.2 0-.1 0-.2.1-.2z"/><path d="m30.6 33.9c0-.2 0-.4.1-.5-.1.1-.1.3-.1.5z"/><path d="m31.7 39c-.1-.4 0-.8.1-1.1l.2-.7-.8-2.6v5.3.2l.1.1.6 1.2.1-.7z"/><path d="m30.4 32.5v.1h.1s0 0-.1-.1z"/><path d="m15.8 36.4c.1 0 .2-.1.3-.1 0 0-.1 0-.1.1-.1-.1-.2 0-.2 0z"/><path d="m16.1 36.3c0-.1 0-.1 0 0z"/><path d="m15.5 36.4h.1c-.1 0-.3 0-.4 0z"/><path d="m16.2 36.2c.1 0 .1-.1.2-.2-.1.1-.2.2-.2.2z"/><path d="m16.8 37 .1-.6z"/><path d="m15.4 35.4c-.1 0-.1-.1-.1-.2-.2-.3-.5-.5-1-.6-.1 0-.1 0-.2 0 0 0 0 0-.1 0h-.1-.1-.1-.1-.1-.1-.1s-.1 0-.1.1c-.1.2-.1.3-.2.5l2.1.5c.3.1.6 0 .8-.1l-.4-.2c0 .1-.1.1-.1 0z"/><path d="m17.6 35.7v.1z"/><path d="m16.2 36.7h.1.1c.1 0 .2 0 .2-.1.1 0 .1-.1.1-.2v-.2h-.1l.1-.4-.6-.2-.1.4c.1 0 .1-.1.2-.2z"/><path d="m15.7 36.4c.1 0 .1 0 .2-.1 0 0-.1.1-.2.1z"/><path d="m19.7 36.8s.1 0 0 0z"/><path d="m18 35.4c.1 0 .1-.1.2-.1h-.1z"/><path d="m16.9 36.4h.1c.1-.1.1-.2.2-.2l-.4-.2-.1.4h.1v.2c0 .1-.1.1-.1.2-.1.1-.1.1-.2.1h-.1-.1l-.2.1.6.2c0-.1.1-.2.1-.3z"/><path d=""/><path d="m15.9 36.3s.1 0 .1-.1c.1.1 0 .1-.1.1z"/><path d="m15.2 36.4h.4c-.1 0-.2 0-.4 0z"/><path d="m15.6 36.4c.1 0 .1 0 0 0 .2 0 .2-.1.3-.1s.1 0 .2-.1l.1-.4-.3-.1c-.2.1-.5.2-.8.1l-2.1-.5v.6l2.1.5z"/><path d="m16.8 37c.1-.2.2-.4.3-.5h-.1z"/><path d="m16.7 37.3c-.1.1-.1.1-.2.1h-.1-.1c-.1 0-.2-.1-.2-.3l.2-1c-.1.1-.1.1-.2.2-.1.1-.2.1-.3.1 0 0 0 0-.1 0 0 0 0 0-.1 0h-.1c-.1 0-.2 0-.3 0l-2.1-.5c.1.4.4.8.9 1 .3.1.6.1.8.1h.5l1.4.5s0-.1 0-.2z"/><path d=""/><path d="m16.2 36.7.2-.6-.3.9z"/><path d="m16.2 36.7-.1.3z"/><path d=""/><path d="m16.9 36.4.2.1z"/><path d="m16.3 37.3h.2c.1 0 .2 0 .2-.1l-.6-.2c0 .2.1.3.2.3z"/><path d="m15.6 36.4s.1 0 0 0c.1 0 .1 0 0 0z"/><path d=""/><path d="m15.6 36.4c.1 0 .1 0 0 0z"/><path d="m29.3 43.5c-.4-.1-.7-.3-1-.6l-.3-.2c-.2.2-.5.3-.8.3.1 0 .2.1.3.1s.1 0 .2.1c.1 0 .1.1.2.1s.1.1.2.1.1.1.2.1c0 0 .1.1.1.1h2s-.1-.1-.1-.1c-.2 0-.3.1-.5.1s-.3 0-.5-.1z"/><path d="m27.2 43.4.4.3h.7s-.1-.1-.1-.1c-.1 0-.1-.1-.2-.1s-.1-.1-.2-.1-.1-.1-.2-.1-.1-.1-.2-.1-.2-.1-.3-.1c.1.1.1.2.1.3z"/><path d="m28.1 42.6c0 .1-.1.1 0 0l.2.4c.3.3.6.5 1 .6h.4c.2 0 .3 0 .5-.1 0 0-.1-.1-.1-.1l-.3-.7-.3-.6-.7-.4v.1c-.2.3-.4.6-.7.8z"/><path d="m30.7 43.6.2-.2v-.1c-.1.1-.3.1-.4.2h-.1s.1.1.1.1z"/><path d="m29.8 42.7.3.7s.1.1.1.1h.1c.1 0 .3-.1.4-.2l-.4-.7c0-.1-.1-.1-.1-.1l-.7-.4z"/><path d=""/><path d="m19.8 37.4c-.1 0-.2 0-.3 0z"/><path d="m19.7 36.8h.2z"/><path d="m19.6 37.4h.3c.1 0 .3 0 .4-.1h.1c.1 0 .1-.1.2-.1 0 0 .1-.1.1-.1l-.7-.3c-.1 0-.2 0-.3 0h-.1-.1s0 0-.1 0c-.1.1-.1.2-.2.4.1.1.2.1.4.2z"/><path d="m19.9 38.7c.1-.5.3-1 .5-1.5-.1 0-.1.1-.2.1 0 0 0 0-.1 0s-.3.1-.4.1c-.1 0-.2 0-.3 0-.1 0-.2-.1-.3-.1-.2.6-.1 1.2.4 1.6z"/><path d="m19.6 37.4c-.1 0-.2-.1-.3-.1s.1 0 .3.1z"/><path d="m20.2 37.3c-.1 0-.3.1-.4.1.2 0 .3 0 .4-.1z"/><path d="m20.3 37.3c.1 0 .1-.1.2-.1-.1 0-.1.1-.2.1z"/><path d="m19.9 39c0-.1 0-.2 0-.4h-.1l-.2.2c.1.1.2.2.3.2-.1 0 0 0 0 0z"/><path d="m27.1 43s.1 0 0 0c.1 0 .1 0 0 0 .3 0 .6-.2.9-.3l-.2-.2-1-1c-.1.1-.2.3-.3.4.3.2.5.7.6 1.1z"/><path d="m27.1 43c.1 0 .1 0 0 0z"/><path d="m19.9 36.8h.2-.1-.1c-.1 0-.1 0 0 0z"/><path d="m20.1 36.8c-.1 0-.1 0-.2 0l.7.3s0 0 .1-.1h-.1c-.1 0-.1-.1-.2-.2s0 0-.1 0-.1 0-.2 0z"/><path d="m20.6 37c0-.1-.1-.1-.1-.2h-.1s.1.1.2.2z"/><path d="m26.7 41.4 1 1 .2.2s.1 0 .1-.1c.3-.2.5-.5.6-.9v-.1l-1.6-1c0 .5-.1.7-.3.9z"/><path d="m35.4 23.7.2-.3-.2-.1z"/><path d="m35.7 19.4c.1.3.3.6.4.9l.4.3h-.4v.3.2.4c0 .3-.2.6-.4.9h.1c.3-.1.5-.4.7-.7l1.8-4.6s0-.1 0-.2v-.1l-.2-1.7-1.6 1.3s-.1.1-.1.1l-.6 1.6v.5z"/><path d="m35.4 22.9.8.1h-.1c.1 0 .2 0 .3-.1l-.6-.2s-.1.1-.1.2c-.1-.2-.2-.1-.3 0z"/><path d="m36.5 20.6-.4-.3c0 .1.1.2.1.3z"/><path d="m35.5 19.3s.1.1.1.1l.1-.1.1-.7v-.5z"/></g><path d="m38.2 15.1.2 1.7v.1.2l-1.8 4.6c-.1.3-.4.6-.7.7h-.1v.1l.6.2v-.3l.4-.6.2-.4.6-1h.2l1.2-2.9s0-.1 0-.2v-.1l-.2-1.8-.1-.6z" fill="#5df9e6"/><path d="m39 23.6-.1.7-.2.7c.2 0 .3.1.5.1.1-.1.1-.1.2-.2s.3-.2.4-.3c0-.4.1-.7.2-1.1l-.3-.4.4.1c0-.1.1-.1.1-.2l.2-.2c.4-.5.9-.7 1.5-.8h.2l2.3-3.1s.1-.1.1-.1v-.1l.3-1.7-1.8.9s-.1.1-.1.1l-3 4c0 .1-.1.1-.1.2v.1.1.1.2.1.2.2l-.5-.4-.3.7z" fill="#304b87"/><path d="m38.9 22.5h-.1-.1l-.1.2.2.2v.1l.1.1-.1.1.3.2v.1l.1.1.2-.8z" fill="#304b87"/><path d="m38.7 25 .2-.7.1-.6-.9 1.2c-.1 0-.2.1-.3.1.2 0 .4-.1.6-.1.1.1.2.1.3.1z" fill="#304b87"/><path d="m44.6 18.7c0 .1 0 .2-.1.2l-2.3 3.1h.2l.3-.2c.2-.6.6-1.2 1.1-1.6.1-.1.3-.2.4-.3.1 0 .1-.1.1-.1.1 0 .2-.1.3-.1h.1l.1-.2s.1-.1.1-.1v-.1l.3-1.8.1-.6-.4.1z" fill="#5df9e6"/><path d="m48.8 21c.2.4.4.8.5 1.3 0 .2.1.5.1.7l.7-.5s.1-.1.1-.1v-.1l.8-1.5-2.1.2c0-.1-.1-.1-.1 0z" fill="#304b87"/><path d="" fill="#304b87"/><path d="m50.2 22.3c-.1.1-.1.2-.2.2l-.7.5c0 .2 0 .5-.1.7l.9-.6s.1-.1.1-.1v-.1l.9-1.6.3-.6h-.5z" fill="#5df9e6"/><path d="m43.3 31.4-.1.1.2.3h-.1l.1.1-1.3.9h-.1l-.5.5c-.2.3-.5.5-.8.6-.1.1-.2.2-.2.2.2.3.4.5.7.6 0-.1.1-.1.1-.2 0 0 .1-.1.1-.2s.1-.1.1-.2.1-.1.1-.2.1-.1.1-.2l.2-.2s.1-.1.1-.1c.1-.1.2-.1.2-.2l.1-.1h.1c.1-.1.3-.2.4-.2.4-.2.8-.3 1.3-.3l-.3-1.3.9.8c.1 0 .2.1.2.1l.2-.3.7-.2.4-.1.9-.3 2.9-1.9s.1-.1.1-.1v-.1l.8-1.5-2.1.2c-.1 0-.1 0-.1.1l-4.1 2.8c-.1 0-.1.1-.2.1s-.1.1-.1.1c0 .1-.1.1-.1.2v.1.2.2.1l-.6-.8z" fill="#304b87"/><path d="m51.2 28.3.3-.6z" fill="#5df9e6"/><path d="m51 27.8-.8 1.5v.1s-.1.1-.1.1l-2.9 1.9.2-.1.4.3 2.4-1.6s.1-.1.1-.1v-.1l.9-1.6.3-.6z" fill="#5df9e6"/><path d="m45 32.4c-.1 0-.2 0-.2-.1z" fill="#5df9e6"/><path d="" fill="#304b87"/><path d="m51.9 33.2c.1 0 .1.1.1.1.4.3.7.6.9 1 .1.2.2.4.3.6l.5-.1c.1 0 .1 0 .1-.1l.1-.1 1.3-1.1-2-.6s-.1 0-.2 0l-1.1.3c-.1 0 0 0 0 0z" fill="#304b87"/><path d="m50.5 34.7c-.1 0-.2-.1-.2-.1.1.1.1.1.2.1z" fill="#304b87"/><path d="m47.8 35.8-.6.2z" fill="#304b87"/><path d="m48.5 35.6c.1 0 .1-.1.2-.1-.1 0-.2 0-.2.1l-.4.2z" fill="#304b87"/><path d="m46 35.3h.2c-.1 0-.1 0-.2 0z" fill="#304b87"/><path d="m48.1 35.7-.3.1z" fill="#5df9e6"/><path d="m55.3 33.5-1.3 1.1-.1.1s-.1.1-.1.1l-.5.1c.1.2.1.3.1.5l.3-.1c.1 0 .1 0 .1-.1l.1-.1 1.4-1.1.5-.4z" fill="#5df9e6"/><path d="m48.3 41.3h-.1-.1c-.3.1-.5.2-.8.2-.4 0-.7-.1-1-.3l-2 .8v.1c-.1.3-.2.6-.4.8.1.2.1.4.1.7h.4l-.1-.3.2.2-.2-.8.2.2c.3.2.6.3.9.2l4.9-1c.1 0 .1 0 .1-.1l.1-.1 1.4-1.1-2-.6s-.1 0-.2 0l-.5.1c-.2.5-.5.8-.9 1z" fill="#304b87"/><path d="m44.7 43.7c.1 0 .1.1.2.1-.1-.1-.2-.1-.2-.1z" fill="#304b87"/><path d="m44 44c.1.1.1.1.2.1h.1.1l-.1-.4h-.4c0 .1.1.2.1.3z" fill="#304b87"/><path d="m44.5 43.6c.1 0 .1.1.2.1-.1-.1-.1-.1-.2-.1z" fill="#5df9e6"/><path d="m45 43.8h.4c-.2 0-.3 0-.4 0z" fill="#5df9e6"/><path d="m52.4 41.2-.5-.2-1.4 1.1-.1.1s-.1.1-.1.1l-4.9 1c-.3.1-.7 0-.9-.2-.1-.1-.1-.1-.2-.2l.2.8c.1 0 .1 0 .2.1.1 0 .1.1.2.1h.1.4l4.9-1c.1 0 .1 0 .1-.1l.1-.1 1.4-1.1z" fill="#5df9e6"/><path d="" fill="#304b87"/><path d="m44.1 24.7s0 .1 0 0z" fill="#304b87"/><path d="m41.7 26c-.1 0-.2 0-.3.1.1-.1.2-.1.3-.1z" fill="#304b87"/><path d="m41.8 26s.1 0 0 0z" fill="#304b87"/><path d="m43.3 24.9.1-.1-.2-.3.2.3z" fill="#304b87"/><path d="m43 26-.3.7-.7.2c-.2.1-.3.1-.5.1.1.3.2.5.3.8.2 0 .3-.1.5-.2s.4-.3.5-.6c.1-.1.1-.2.3-.3l.5-.3c0-.1 0-.2-.1-.3l.2.2.6-.4-.3-.1 1.3-1.5c.1-.1.2-.2.4-.3.3-.1.5-.2.7-.5.3-.3.4-.8.3-1.2l-2 1.3c-.1 0-.1.1-.2.1s-.1.1-.1.1c0 .1-.1.1-.1.2v.1.2.2.1l-.3-.4-.5 1.1z" fill="#304b87"/><path d="m44.5 26.3.1.2s.1 0 .1.1c0 0 0 0 0-.1s0-.2-.1-.2l-.2-.2.1.2c.1 0 .1 0 0 0z" fill="#304b87"/><path d="m42.8 25.4-.7.5c-.1 0-.1.1-.2.1 0 0 0 0-.1 0h-.1c-.1 0-.2 0-.3.1l-.3.4c0 .1.1.1.1.2.1.2.2.3.3.5.2 0 .4-.1.5-.1l.7-.3.3-.8.3-.5.5-1.1-.2-.4-.3.4-.1.1.2.3h-.1l.1.1z" fill="#304b87"/><path d="m44.7 26.8c.1-.1.1-.2.1-.2s-.1 0-.1-.1l-.1-.2h.1l-.1-.2v.1l-.3-.3-.6.4.4.4c0-.1 0-.2-.1-.3l.2.2.3-.2z" fill="#304b87"/><path d="m42 28.4c.2-.1.3-.1.4-.2.2-.1.4-.3.5-.6.1-.1.1-.2.3-.3l.1-.1c.1-.2.2-.5.2-.8l-.5.3c-.1.1-.2.2-.3.3-.1.2-.2.4-.5.6-.2.1-.3.2-.5.2v.6z" fill="#304b87"/><path d="m43.3 24.4h-.1z" fill="#304b87"/><path d="m44 23.9-.1.5.3.4s0 0 0-.1c0-.1 0-.1 0-.2 0-.1 0-.1 0-.2 0 0 0 0 0-.1s.1-.1.1-.2c0-.1.1-.1.1-.1.1-.1.1-.1.2-.1l2-1.3c-.1-.4-.3-.7-.6-.9s0 0-.1 0h-.1s0 0-.1 0z" fill="#304b87"/><path d="m44.7 26.8-.2-.4-.3.2.5.2c-.1.1-.1.1 0 0z" fill="#304b87"/><path d="m42.8 27.7c-.1.2-.2.4-.5.6-.1.1-.2.1-.3.1h-.1c-.1 0-.1 0-.2 0 0 .3 0 .5-.1.8l1.4-1.7c.1-.1.1-.2.2-.3l-.1.1c-.2.1-.2.3-.3.4z" fill="#304b87"/><path d="m44 27.3c0-.1 0-.2 0-.3z" fill="#304b87"/><path d="m44 26.8c0-.1 0-.1 0 0z" fill="#304b87"/><path d="m43.3 24.9-.1-.4-.1.1-.1-.1-.1.1-.4-.3-.1.1-.1-.1-.1.1-.2-.3-.2.2v.1c0 .1 0 .2.1.2l.9.7.6-.4z" fill="#304b87"/><path d="m41.7 26h.1.1c.1 0 .1 0 .2-.1l.7-.5c-.1 0-.2 0-.2 0s0 0-.1 0-.1 0-.2 0c0 0 0 0-.1 0s-.2.1-.2.1c-.1 0-.1.1-.2.1 0 0 0 0-.1 0-.1.1-.1.1-.2.2l-.1.2z" fill="#304b87"/><path d="m44.1 23.9 1.8-2.5h-.1-.1-.1-.1-.1s-.1 0-.1.1c0 0 0 0-.1 0s-.1.1-.2.1c-.3.3-.5.6-.5 1 0 .2-.1.3-.2.4l-.7 1 .2.4z" fill="#304b87"/><path d="m44.5 23.9c-.1.1-.1.1-.2.2z" fill="#304b87"/><path d="m44.2 24.3c0 .1-.1.2-.1.2.1-.1.1-.1.1-.2z" fill="#304b87"/><path d="m44.1 24.7c0-.1 0-.1 0-.2z" fill="#304b87"/><path d="m46.7 22.4-2 1.3z" fill="#304b87"/><path d="m41.9 26c.1 0 .1 0 .2-.1-.1 0-.2 0-.2.1z" fill="#304b87"/><path d="m41.8 26h-.1z" fill="#304b87"/><path d="m42.1 28.4c.1 0 .2-.1.3-.1-.1 0-.2.1-.3.1z" fill="#304b87"/><path d="m42 28.4c-.1 0-.1 0-.2 0z" fill="#304b87"/><path d="m45.2 25.4.7-.9z" fill="#5df9e6"/><path d="m44.6 26 .5.4-.5-.4.4-.4z" fill="#5df9e6"/><path d="m45 25.6.2-.2z" fill="#5df9e6"/><path d="m45.2 27.1h.1z" fill="#5df9e6"/><path d="m45.4 27h-.1v.1-.1z" fill="#5df9e6"/><path d="m44.8 27.1c0 .1.1.1.2.1-.1 0-.2-.1-.2-.1z" fill="#5df9e6"/><path d="m45.2 26.5.2.2-.2-.4z" fill="#5df9e6"/><path d="m46.4 23.6c-.2.2-.4.4-.7.5-.2 0-.3.1-.4.3l-1.3 1.4.2.2.1-.1.2.3.2.2c.1.1.1.2.1.2v.1h.1.2l.1-.1.1-.1-.1-.1v.1l-.6-.5.3-.4-.2-.3c.1 0 .2.1.3.1h.2l.7-.9c.1-.1.2-.2.4-.3.3-.1.5-.2.7-.5.4-.5.4-1.2.1-1.7l-.4.3c.1.5 0 .9-.3 1.3z" fill="#5df9e6"/><path d="m45.4 26.7-.2-.2z" fill="#5df9e6"/><path d="m44.7 26.9.1.2z" fill="#5df9e6"/><path d="m44.7 26.7v.2h-.1l.1.2c0 .1.1.1.2.1l.4-.4-.2-.3-.1.1-.1.1c-.1 0-.1 0-.2 0 0 0 0 0-.1 0 .2-.1.2 0 .1 0z" fill="#5df9e6"/><path d="m44.5 26.1-.2-.3-.1.1.3.2c0 .1 0 .1 0 0z" fill="#5df9e6"/><path d="m45 25.4c-.1 0-.2 0-.3-.1l.2.3.2-.2z" fill="#5df9e6"/><path d="m46.7 22.4.4-.3c-.1-.2-.3-.4-.5-.5s-.3-.1-.5-.2c.3.3.5.6.6 1z" fill="#5df9e6"/><path d="m45.4 26.7c0-.1 0-.2-.1-.2l-.2-.2z" fill="#5df9e6"/><path d="m45.2 27.1c-.1.1-.2.1-.2 0-.1 0-.1 0-.2-.1l-.1-.2h.1l-.1-.1-.1.1.3.2c.1 0 .1.1.2.1 0 .1.1.1.1 0z" fill="#5df9e6"/><path d="m46.7 22.4.4-.3z" fill="#5df9e6"/><path d="" fill="#5df9e6"/><path d="" fill="#5df9e6"/><path d="m45.2 27.1.1-.1.1-.1c.1-.1.1-.1 0-.2l-.4.5s.1 0 .2-.1z" fill="#5df9e6"/><path d="m44.7 26.9c.1 0 .1 0 0 0z" fill="#5df9e6"/><path d="" fill="#304b87"/><path d="m37 33.4s.1 0 0 0z" fill="#304b87"/><path d="m37 35.5c-.1 0-.2 0-.2 0-.4-.1-.7-.2-1-.5-.1-.1-.2-.2-.3-.4v4.6l.5-.3z" fill="#304b87"/><path d="m37.7 27.3c-.1 0-.1 0 0 0z" fill="#304b87"/><path d="m35.4 34.6c-.1-.1-.2-.3-.2-.4s-.1-.2-.1-.3l-1.4 4.5v.2l.3 1.5 1.5-.9v-4.6z" fill="#304b87"/><path d="m35.5 31.2-.3-.1-.1.2v.1c0 .1.1.2.2.2h.1z" fill="#304b87"/><path d="m37.7 27.3c0 .1 0 .1 0 0l.3-.3s0 0-.1 0h-.1-.1s-.1 0-.1.1c-.1.2 0 .2.1.2-.1 0-.1 0 0 0z" fill="#304b87"/><path d="m37.7 27.3c-.1 0-.1 0 0 0-.1 0-.1-.1-.2-.1s-.1 0-.1.1c0 0 0 0-.1.1 0 0-.1.1-.1.1v.1c0 .1-.1.1-.1.2-.1.2-.2.4-.2.5l.8-1c0 .1 0 .1 0 0z" fill="#304b87"/><path d="m37.7 27.3c0 .1 0 .1 0 0z" fill="#304b87"/><path d="m37.5 27.3s.1.1.1.1c0-.1-.1-.1-.1-.1z" fill="#304b87"/><path d="m37.2 32.9.3-.1v-.1c0-.1-.1-.1-.1-.2l-.2.7z" fill="#304b87"/><path d="m37.7 30.5-.4 2 .6.2.2-.1c0-.1-.1-.1-.1-.2l.3.1.6-.2s0-.1-.1-.1c0-.1-.1-.2-.2-.2l-.2-.1v.1l-.6-.2.6-1.9c0-.2.2-.3.3-.4l.2-.2c-.1 0-.1 0-.2 0l-.8 1c-.2.1-.2.2-.2.2z" fill="#304b87"/><path d="m39 29-.4.4h.2c.1-.1.1-.2.2-.4z" fill="#304b87"/><path d="m39 28.9v.1z" fill="#304b87"/><path d="m38.1 32.8c0-.1 0-.1 0 0 0-.1-.1-.1-.1-.2l-.2.1z" fill="#304b87"/><path d="m37.4 32.8-.3.1-.1.3v.1l.4-.2c.1 0 .1-.1 0-.3z" fill="#304b87"/><path d="" fill="#304b87"/><path d="m38.1 32.8c0 .1.1.2.1.2 0-.1-.1-.2-.1-.2z" fill="#304b87"/><path d="m38.7 32.7v-.1-.1c0-.1 0-.1 0-.1l-.6.2.6.2z" fill="#304b87"/><path d="" fill="#304b87"/><path d="m38.4 27.4h-.1z" fill="#304b87"/><path d="m38.2 33.3v.2s0-.1 0-.2z" fill="#304b87"/><path d="m38.1 27.5s.1-.1 0 0c0-.1 0-.1 0 0 0-.1 0 0 0 0z" fill="#304b87"/><path d="m38.2 33.3c0-.1 0-.2 0-.2z" fill="#304b87"/><path d="m35.9 31c.2.3.3.6.3.9l.2.1s0 0-.1 0-.1 0-.2.1v.1.2.4c-.1.4-.2.8-.6 1.1-.1.1-.1.1-.2.2v.5c.1.1.2.3.3.4.3.2.6.4 1 .5h.2l.5-1.6c.1-.2.1-.4.1-.6l-.4.2.1-.1.2-.7.4-2c0-.1 0-.1.1-.2l.8-1c-.1 0-.3.1-.4.1-.4 0-.8-.1-1.2-.2v.1l-.6 1.8h-.1v.1z" fill="#304b87"/><path d="m35.8 31v.1h-.1v.1h-.1l-.1.5.8.2c0-.3-.1-.6-.3-.9z" fill="#304b87"/><path d="m35.4 34.6v-.5l.2-.2c.3-.3.5-.7.6-1.1 0-.1 0-.3 0-.4v-.2-.1s0 0-.1 0c-.1 0-.1.1-.2.1 0 0 0 0-.1 0-.1.1-.1.1-.2.2 0 .1-.1.1-.1.2v.1c0 .1-.1.2-.1.2l-.3 1c0 .1.1.2.1.3.1.2.1.3.2.4z" fill="#304b87"/><path d="m38.3 27.4h.1s0 0-.1 0z" fill="#304b87"/><path d="m38.4 27.4v-.1c-.2-.1-.3-.2-.5-.2l-.2.3c.1.1.3.1.4.1h.1.2c0-.1 0-.1 0-.1z" fill="#304b87"/><path d="m37 28.9v.4c.4.1.8.2 1.2.2.1 0 .3 0 .4-.1l.4-.4c-.1-.2-.2-.3-.3-.5-.1-.3-.2-.7-.2-1.1h-.1-.1c-.1 0-.3 0-.4-.1l-.8.9c-.2.3-.2.5-.1.7z" fill="#304b87"/><path d="m38.2 27.4h.1z" fill="#304b87"/><path d="" fill="#304b87"/><path d="m37.7 27.4c.1.1.3.1.4.1-.1-.1-.3-.1-.4-.1z" fill="#304b87"/><path d="" fill="#304b87"/><path d="m38.2 27.4s0 .1 0 0h.2c-.1 0-.2 0-.2 0z" fill="#304b87"/><path d="m38.4 27.4h.1s-.1-.1-.1-.1z" fill="#304b87"/><path d="m38.6 27.4h-.1c0 .4.1.7.2 1.1.1.2.2.3.3.5l.1-.1c.1-.6-.1-1.2-.5-1.5z" fill="#304b87"/><path d="m38.6 27.4h-.1z" fill="#304b87"/><path d="m38.4 27.4h.1s0 0-.1 0z" fill="#304b87"/><path d="m38.8 32.7.2.1z" fill="#304b87"/><path d="m37 33.4c.1 0 .1.1 0 0 .1.1.1 0 0 0z" fill="#304b87"/><path d="m37 33.4c.1 0 .1.1 0 0 .1.1.1.1 0 0 .1.1.1 0 0 0z" fill="#304b87"/><path d="" fill="#5df9e6"/><path d="m38.6 29.6c-.1.1-.2.2-.3.4l-.6 1.9.6.2v-.1l.2.1c.1 0 .1.1.2.2 0 0 0 .1.1.1l.4-.2h.1s.1 0 .1-.1c0 0-.1-.1-.1-.1l-.2-.1v.1l-.6-.2.5-1.8c0-.2.2-.3.3-.4 0 0 .1-.1.1-.1-.1-.1-.1-.1-.2-.2-.1 0-.3.1-.4.1-.1.1-.2.1-.2.2z" fill="#5df9e6"/><path d="m39.2 29.3c-.1-.1-.2-.2-.2-.3-.1.1-.1.3-.2.4.1 0 .2-.1.4-.1z" fill="#5df9e6"/><path d="m39.6 29.1c-.1.1-.3.1-.4.2l.2.2c0-.1.1-.3.2-.4z" fill="#5df9e6"/><path d="m39 28.9s0 .1-.1.1c.1.1.1.2.2.2.2-.1.3-.1.4-.2 0-.1.1-.1.1-.2.1-.3.1-.6 0-.8z" fill="#5df9e6"/><path d="m39.3 32c0 .1-.1.1 0 0l-.2.1-.4.2v.1.1.1h.2c0-.1.1-.2.1-.2l.1-.1v-.1s.1-.1.2-.2z" fill="#5df9e6"/><path d="m39.4 32.2s0-.1-.1-.1c-.1.1-.2.2-.2.3v.1h-.1c0 .1-.1.1-.1.2l.5-.2v-.1c0-.1 0-.2 0-.2z" fill="#5df9e6"/><path d="m38.4 27.2c0-.1 0-.2 0-.2h-.1c-.1 0-.2 0-.3.1.1 0 .3.1.4.1z" fill="#5df9e6"/><path d="" fill="#5df9e6"/><path d="m38.7 27.3h-.1z" fill="#5df9e6"/><path d="m38.7 27.3h-.1z" fill="#5df9e6"/><path d="m38.4 27.1v.1s.1.1.1.1h.1c.1 0 .1-.1.2-.1 0 0 .1 0 .1-.1-.1-.1-.3-.1-.5-.1z" fill="#5df9e6"/><path d="m38.9 27.2c-.1.1-.2.1-.2.1h-.1c.4.3.6.9.5 1.5l.7-.8c-.2-.4-.5-.7-.9-.8 0-.1 0 0 0 0z" fill="#5df9e6"/><path d="" fill="#5df9e6"/><path d="" fill="#5df9e6"/><path d="m38.8 27.2c-.1 0-.1.1-.2.1.2 0 .2 0 .2-.1z" fill="#5df9e6"/><path d="" fill="#5df9e6"/><path d="m39 27.1c-.1 0-.1.1 0 0-.1.1-.1 0 0 0z" fill="#5df9e6"/><path d="m39 32.8h.2.1c.1 0 .1-.1.1-.1v-.1l-.5.2z" fill="#5df9e6"/><path d="m47.8 36.2c.1 0 .1 0 0 0z" fill="#304b87"/><path d="m47.9 36.3c.1.1.2.1.3.1-.1 0-.1 0-.2-.1 0 0 0 0-.1 0z" fill="#304b87"/><path d="m47.6 36.1.2.2c0-.1-.1-.2-.2-.2z" fill="#304b87"/><path d="m47.1 36.4.1.6z" fill="#304b87"/><path d="m48.5 36.4h.3c-.1 0-.3 0-.4 0z" fill="#304b87"/><path d="m44.3 36.8c-.1 0 0 0 0 0z" fill="#304b87"/><path d="m48.1 36.3c.1 0 .1.1.2.1-.1 0-.2-.1-.2-.1z" fill="#304b87"/><path d="m47.8 35.8-.6.2.1.4h-.1v.2c0 .1.1.1.1.2.1.1.1.1.2.1h.1.1l-.1-.7.2.2z" fill="#304b87"/><path d="m46.4 35.8v-.1h-.1c.1 0 .1.1.1.1z" fill="#304b87"/><path d="m48.1 35.7c.2.1.5.2.8.1l2.1-.5c0-.2-.1-.3-.2-.5s-.1 0-.1-.1c0 0 0 0-.1 0h-.1-.1-.1-.1-.1-.1s0 0-.1 0-.1 0-.2 0c-.4.1-.8.3-1 .6 0 .1-.1.1-.1.2-.1 0-.1.1-.2.1z" fill="#304b87"/><path d="m46 35.3h-.1c.1 0 .1.1.2.1z" fill="#304b87"/><path d="m47.8 36.7h-.2c-.1 0-.2 0-.2-.1-.1 0-.1-.1-.1-.2v-.2h.1l-.2-.2-.4.2c.1.1.1.2.2.2h.1l.1.5c0 .1.1.2.1.3l.6-.2z" fill="#304b87"/><path d="" fill="#304b87"/><path d="m47.9 36.2c0 .1 0 .1 0 0 .1 0 .1 0 .2.1-.1 0-.2 0-.2-.1z" fill="#304b87"/><path d="m48.4 36.4h.4c-.2 0-.3 0-.4 0z" fill="#304b87"/><path d="m48.1 35.7-.3.1.1.4c.1 0 .1 0 .2.1.1 0 .1.1.2.1h.1.4l2.1-.5c0-.2.1-.4 0-.6l-2.1.5c-.2.1-.5 0-.7-.1z" fill="#304b87"/><path d="m47.1 36.4h-.1c.1.2.2.3.2.5z" fill="#304b87"/><path d="m49.7 37.5h.4c-.2 0-.3 0-.4 0z" fill="#304b87"/><path d="m48.5 36.4h-.1s0 0-.1 0c0 0 0 0-.1 0s-.2-.1-.3-.1c-.1 0-.1-.1-.2-.2l.2 1c0 .1 0 .2-.2.3h-.1-.1c-.1 0-.2 0-.2-.1v.3l1.4-.5c.2-.1.3-.1.5 0 .3.1.6.1.8-.1.5-.2.8-.6.9-1l-2.1.5c-.1-.1-.2-.1-.3-.1z" fill="#304b87"/><path d="m47.8 36.7.1.3-.3-.9z" fill="#304b87"/><path d="m48.2 36.4c.1 0 .1 0 0 0z" fill="#304b87"/><path d="m47.1 36.4-.2.1z" fill="#304b87"/><path d="m47.5 37.4h.2c.1 0 .2-.1.2-.3l-.6.2s.1.1.2.1z" fill="#304b87"/><path d="m47.8 36.7.1.3z" fill="#304b87"/><path d="" fill="#304b87"/><path d="" fill="#304b87"/><path d="m48.3 36.4s.1 0 0 0c.1 0 .1 0 0 0z" fill="#304b87"/><path d="m48.8 36.4 2.1-.5z" fill="#304b87"/><path d="" fill="#304b87"/><path d="m51.2 35.3c-.1-.2-.2-.3-.4-.4.2.1.3.2.4.4z" fill="#5df9e6"/><path d="m51.2 35.3c.1.2.2.3.2.5 0-.2-.1-.3-.2-.5z" fill="#5df9e6"/><path d="" fill="#5df9e6"/><path d="m51.4 35.9v-.1z" fill="#5df9e6"/><rect fill="#5df9e6" height="0" width="0" x="51.4" y="35.8"/><path d="m47.5 39.4s.1 0 .1-.1 0 .1-.1.1z" fill="#5df9e6"/><path d="m47.8 39.1s0 .1-.1.1v.1-.1s0-.1.1-.1z" fill="#5df9e6"/><path d="m47.7 38.9v-.2z" fill="#5df9e6"/><path d="m51.2 35.3c-.1-.2-.2-.3-.4-.4.1.2.1.3.2.5z" fill="#5df9e6"/><path d="m51.2 35.3-.3.1v.6l.5-.1c0-.3-.1-.4-.2-.6z" fill="#5df9e6"/><path d="" fill="#5df9e6"/><path d="m47.4 38.8h.2l-.2-.5z" fill="#5df9e6"/><path d="m50.9 35.9c-.1.4-.4.8-.9 1-.2.1-.5.1-.8.1-.2 0-.3 0-.5 0l-1.4.5c0 .2.1.4.1.7l1.8-.7h.3.2.4c.2 0 .3 0 .5-.1s.4-.2.5-.4.3-.3.3-.5c0-.1.1-.2.1-.3s0-.2 0-.3v-.1z" fill="#5df9e6"/><path d="m50.9 35.9.5-.1z" fill="#5df9e6"/><path d="m47.7 39.3-.3.1-.2-.1v.1h.2.1.1s0-.1.1-.1z" fill="#5df9e6"/><path d="m47.2 39.4.2.1.3-.1v-.1s0-.1.1-.1v-.1l-.1-.2v.1-.1h-.2c-.2.1-.2.3-.3.5z" fill="#5df9e6"/><path d="m35.7 43.6s.1-.1.1-.1c.1 0 .1-.1.2-.1s.1-.1.2-.1.1-.1.2-.1.1 0 .2-.1c.1 0 .2-.1.2-.1-.3-.1-.6-.2-.8-.3l-.3.3c-.3.3-.6.5-1 .5-.2 0-.3.1-.5.1-.1 0-.3 0-.5-.1 0 0 0 .1-.1.1z" fill="#304b87"/><path d="m36.8 43.4c0-.1.1-.2.1-.3-.1 0-.2 0-.2.1-.1 0-.1 0-.2.1-.1 0-.2.1-.2.1-.1 0-.1.1-.2.1s-.1.1-.2.1c0 0-.1.1-.1.1h.7z" fill="#304b87"/><path d="m33.7 43.6s0-.1.1-.1c-.1 0-.1 0-.2 0s-.3-.1-.4-.2v.1l.2.2z" fill="#304b87"/><path d="m33.3 43.6-.1-.2-.2.2z" fill="#304b87"/><path d="m34.7 43.5c.4-.1.7-.3 1-.5l.3-.3s-.1 0-.1-.1c-.3-.2-.5-.5-.6-.9v-.1l-.7.4-.4.8c-.1.2-.2.4-.3.6.2 0 .3.1.5.1 0 .1.2.1.3 0z" fill="#304b87"/><path d="m33.2 43.3c.1.1.3.1.4.2h.2c.1-.2.2-.4.3-.6l.4-.8-.7.4c-.1 0-.1.1-.1.1z" fill="#304b87"/><path d="m44.4 37.4c-.1 0-.2 0-.3 0z" fill="#304b87"/><path d="" fill="#304b87"/><path d="m44.4 36.8c-.1 0-.1 0 0 0-.1 0-.2 0-.2 0h-.1z" fill="#304b87"/><path d="m44.1 36.8-.7.3s.1.1.1.1c.1 0 .1.1.2.1h.1c.1 0 .3.1.4.1h.3c.1 0 .2-.1.3-.1 0-.1-.1-.2-.2-.4s0 0-.1 0h-.1-.1c0-.1-.1-.1-.2-.1z" fill="#304b87"/><path d="m44.4 37.4c-.1 0-.2 0-.3 0-.1 0-.3 0-.4-.1 0 0 0 0-.1 0s-.1-.1-.2-.1c.3.4.5.9.5 1.5h.1l.2.2c.5-.4.7-1.1.4-1.6.1 0 0 0-.2.1z" fill="#304b87"/><path d="m44.4 37.4c.1 0 .2-.1.3-.1s-.1 0-.3.1z" fill="#304b87"/><path d="m44.2 37.4c-.1 0-.3 0-.4-.1.1.1.2.1.4.1z" fill="#304b87"/><path d="m43.7 37.3c-.1 0-.1-.1-.2-.1.1 0 .1.1.2.1z" fill="#304b87"/><path d="m44.1 38.7v.4h.1c.1 0 .1-.1.2-.1z" fill="#304b87"/><path d="m37.5 41.8c-.1-.1-.2-.2-.3-.4l-1 1-.2.3c.2.2.5.3.8.3.2-.4.4-.9.7-1.2z" fill="#304b87"/><path d="m36.9 43c-.1 0-.1 0 0 0z" fill="#304b87"/><path d="m44.1 36.8c.1 0 .1 0 0 0 0-.1-.1-.1-.1-.1h-.1c.1.1.1.1.2.1z" fill="#304b87"/><path d="m43.4 37 .7-.2c-.1 0-.1 0-.2 0h-.1s0 0-.1 0c-.1 0-.2.1-.3.2z" fill="#304b87"/><path d="m43.4 37c.1-.1.2-.2.3-.2h-.1c-.2 0-.2.1-.2.2z" fill="#304b87"/><path d="m35.9 42.6c0 .1.1.1 0 0l.3-.2 1-1c-.2-.2-.3-.5-.4-.7l-1.6 1v.1c.2.3.4.6.7.8z" fill="#304b87"/><path d="m45.3 38.7c0-.1.1-.2.1-.3 0 .1 0 .2-.1.3z" fill="#5df9e6"/><path d="m45.4 38.4c.1-.3 0-.6-.2-.9.2.3.3.6.2.9z" fill="#5df9e6"/><path d="m45.3 38.7c0 .1-.1.2-.1.3 0-.1.1-.2.1-.3z" fill="#5df9e6"/><path d="m44.8 37.2c.1 0 .1-.1.1-.1-.1-.1-.2-.2-.3-.2.1.1.1.2.2.3z" fill="#5df9e6"/><path d="m44.4 38.9.2.2.7-.3s.1 0 .1-.1.1-.2.1-.3c.1-.3 0-.6-.2-.9-.1-.1-.1-.2-.2-.3 0 0-.1-.1-.1-.1s-.1.1-.1.1c.1.6-.1 1.3-.5 1.7z" fill="#5df9e6"/><path d="m44.8 37.2c.1 0 .1-.1.1-.1 0 .1-.1.1-.1.1z" fill="#5df9e6"/><path d="m44.1 39v.2l.4-.2-.2-.2c0 .1-.1.2-.2.2z" fill="#5df9e6"/><path d="m45.2 39c.1-.1.1-.2.1-.3 0 0-.1 0-.1.1l-.7.2.3.3h.1z" fill="#5df9e6"/><path d="m44.9 39.3c-.2 0-.5.1-.7.1 0 0 0 0-.1 0v.2h.1.1c.1 0 .3-.1.4-.2.1 0 .1 0 .2-.1z" fill="#5df9e6"/><path d="m44.5 39-.4.2v.2h.1c.2 0 .5 0 .7-.1h-.1z" fill="#5df9e6"/><path d="" fill="#304b87"/><path d="m32.9 17.7c-.1.1-.1.1-.2.2.1-.1.1-.1.2-.2z" fill="#304b87"/><path d="m31.3 17.9s-.1-.1-.1-.1c.1.1.1.1.1.1h-.1z" fill="#304b87"/><path d="m33 17.5c0 .1 0 .1 0 0-.1.1-.1.1-.1.2 0 0 .1-.1.1-.2 0 .1 0 .1 0 0z" fill="#304b87"/><path d="m31.3 17.9h-.1c0 .2.1.3.1.4h.3v1.7c0 .1 0 .2-.1.3v.1l.4.1v.1-.1l.3-.1v-.1-1.6h.1v-.1h.4c.1-.2.2-.4.2-.6h-1c.1 0 .1-.1.2-.1s.1-.1.1-.1c0-.1.1-.1.1-.2 0-.1 0-.1.1-.2 0 0 0 0 0-.1s0-.1 0-.2v-.2s0 0-.1-.1c0 0-.1 0-.1-.1 0 0 0 0-.1 0-.1-.1-.2-.1-.3-.1-.3.1-.6.4-.8.7.1.2.2.4.3.5l.2.2h-.7v.1c.5-.2.5-.2.5-.2z" fill="#304b87"/><path d="m32.7 19c0-.1.1-.3.1-.4h-.4v.1h-.1v1.6.1l.3-.1v-1.3z" fill="#304b87"/><path d="m32.8 16.3c.1 0 .1 0 0 0z" fill="#304b87"/><path d="m32.7 17.1c-.1 0-.1 0 0 0 0 .1 0 .2-.1.2 0 .1-.1.1-.1.2s-.1.1-.1.1-.1.1-.2.1h1-.4c.1 0 .1-.1.2-.1s.1-.1.1-.1v-.1c0-.1 0-.1-.1-.2 0 0 0 0 0-.1 0 0 0-.1-.1-.1 0 0 0 0 0-.1 0 0 0-.1-.1-.1 0 0 0-.1-.1-.1 0 0 0 0-.1-.1 0 0 0 0-.1-.1v.2c.2.3.2.3.2.4z" fill="#304b87"/><path d="m31.7 18.4h-.3c0 .1 0 .1.1.2s.2.3.2.5v1.3c0-.1.1-.2.1-.3z" fill="#304b87"/><path d="m31.7 17.5c-.1-.1-.2-.3-.3-.5-.1.2-.2.4-.2.7h.7c-.1 0-.2-.1-.2-.2z" fill="#304b87"/><path d="m31.2 17.8c0 .1 0 .1 0 0l.1.1s0 0-.1-.1z" fill="#304b87"/><path d="m33 17.6s-.1.1-.1.1-.1.1-.2.1h.4c0-.1 0-.3 0-.5 0 .2 0 .2-.1.3z" fill="#304b87"/><path d="m33.1 17.9h-.4z" fill="#304b87"/><path d="" fill="#304b87"/><path d="m31.3 27.5c-.1 0-.1 0 0 0z" fill="#304b87"/><path d="m31.2 24.4v.3c0-.1.1-.2.1-.2s-.1-.1-.1-.1z" fill="#304b87"/><path d="" fill="#304b87"/><path d="" fill="#304b87"/><path d="m31.7 21.6.3-1v-.1l-.4-.1v.6h-.2v.2c0 .2.1.4.1.6h.2z" fill="#304b87"/><path d="m31.7 21.8s-.1.1 0 0c-.1.1-.1.1 0 0z" fill="#304b87"/><path d="m30.9 21.7c0 .1 0 .1 0 0-.1.1-.1.1-.1.1.1-.1.1-.1.1-.1z" fill="#304b87"/><path d="m31.6 21.9c-.2.1-.3.2-.3.4.1 0 .1.1.2.1z" fill="#304b87"/><path d="m31.2 21.4c-.1.1-.2.1-.2.2h.5c-.1-.2-.1-.4-.1-.6 0-.1 0-.1 0-.2h-.4s0-.1.1-.1h-.1s0 .1-.1.1c0 .1-.1.2-.1.4v.1z" fill="#304b87"/><path d="m31.4 22.7.1-.2c-.1 0-.1-.1-.2-.1-.1.2-.1.4-.1.6v.4l.4-.1z" fill="#304b87"/><path d="m31.5 24-.3-.1v.5h.1c.1-.1.1-.2.2-.4z" fill="#304b87"/><path d="m30.6 22.6c0-.2 0-.4.1-.5-.1.2-.1.4-.1.5z" fill="#304b87"/><path d="m30.8 21.3c0-.1 0-.3.1-.4 0 0 0-.1.1-.1h-.1c-.1 0-.1 0-.1.1-.1 0-.1.1-.1.2v.1.1h.4c-.3.1-.3.1-.3 0z" fill="#304b87"/><path d="m30.9 21.8c-.1.1-.2.2-.2.3 0-.1.1-.2.2-.3z" fill="#304b87"/><path d="" fill="#304b87"/><path d="m30.8 21.3c0-.1 0-.3.1-.4-.1.2-.1.3-.1.4z" fill="#304b87"/><path d="m31.5 22.4c-.1 0-.1-.1-.2-.1.1.1.1.1.2.1z" fill="#304b87"/><path d="m30.8 21.4v-.1z" fill="#304b87"/><path d="m31.2 28.7v.1l.1.1.9 1.7.9-1.8c-.2-.1-.4-.2-.6-.3s-.3-.2-.5-.4c-.1.1-.3.3-.5.4-.1.1-.2.2-.3.2z" fill="#304b87"/><path d="m32.8 29.9.5-1h-.1z" fill="#304b87"/><path d="m31.7 27.8c-.3.2-.4.5-.5.9.1-.1.2-.1.3-.2.2-.1.3-.2.5-.4-.1 0-.2-.1-.3-.3z" fill="#304b87"/><path d="" fill="#304b87"/><path d="m31.7 27.8s-.1-.1-.1-.1l-.1-.1v-.1c0-.1-.1-.1-.1-.2s-.1 0-.1.1c0 0-.1 0-.1.1v1.2c.1-.3.3-.6.5-.9z" fill="#304b87"/><path d="m33.1 26.3s0 .1 0 0z" fill="#304b87"/><path d="m31.4 27.4c0-.1-.1-.2-.1-.2 0-.1-.1-.1-.1-.2v.6h.1c0-.2 0-.2.1-.2z" fill="#304b87"/><path d="m33 25.8c0-.1 0-.2 0-.2v.2.1s0 0 0-.1z" fill="#304b87"/><path d="m31.3 27.5s.1 0 .1-.1c-.1 0-.1 0-.1.1z" fill="#304b87"/><path d="m33.1 25.5v-.1.1c0-.1 0 0 0 0z" fill="#304b87"/><path d="m33 25.7v.2.2.1.1.1.1-.9c0 .1-.1.1-.1.2.1-.2.1-.1.1-.1z" fill="#304b87"/><path d="m33 26c0-.1 0-.1 0-.2 0 0 0-.1 0-.2v-.1.2.1.2c0-.1 0 0 0 0z" fill="#304b87"/><path d="m32.9 22.2c-.1 0 0 0 0 0z" fill="#304b87"/><path d="m32.7 22.3c-.1.1-.2.1-.3.1.2 0 .2 0 .3-.1z" fill="#304b87"/><path d="m33 25.3v.2h.1v-.1-1c-.1 0-.3.1-.4.1.1.2.2.5.3.8z" fill="#304b87"/><path d="m33.3 21.3v.1z" fill="#304b87"/><path d="m32.4 22v.1s0 0 0-.1v-.1s0 0 0-.1v-.1s-.1-.1-.1-.1h.2v-.1c.1-.4 0-.7-.2-1-.1-.1-.1-.2-.1-.2l-.2.2v.1l.3 1z" fill="#304b87"/><path d="m32.7 22.3c.1 0 .1 0 0 0 .1-.1.1-.1.1-.1.1 0 0 0-.1.1.1 0 .1 0 0 0z" fill="#304b87"/><path d="" fill="#304b87"/><path d="m33.2 20.9h-.3v-.1h-.2v-.6l-.3.1c0 .1.1.2.1.2.2.3.3.6.2 1v.1h.4s.1.1.1.1-.1-.1-.1-.1 0 0-.1 0c0 0-.1-.1-.1-.1h.5v-.1c-.1-.2-.2-.4-.2-.5z" fill="#304b87"/><path d="m32.5 22c-.1.1-.1.1-.1.1l.1.2h.3s.1 0 .1-.1h.1s0 0 0-.1c0 0 0 0 0-.1s-.1-.1-.1-.2 0 0-.1-.1c-.2.1-.2.2-.3.3.1-.1 0-.1 0 0z" fill="#304b87"/><path d="" fill="#304b87"/><path d="m32.5 22.4c.1 0 .1 0 .2-.1-.1 0-.2 0-.3 0z" fill="#304b87"/><path d="m33.3 21.3v.1h.6v-.2c0-.1 0-.1-.1-.2 0 0-.1-.1-.2-.1h-.1-.3c0 .1.1.3.1.4z" fill="#304b87"/><path d="" fill="#304b87"/><path d="m32.7 24.5c.1 0 .3-.1.4-.1v-.6l-.6.2c.1.2.1.3.2.5z" fill="#304b87"/><path d="m32.8 22.3c-.1.1-.1.1-.1.1-.1 0-.1.1-.2.1l.1.2-.2.5.7.2v-.4c0-.1 0-.2 0-.3 0 0 0 0 0-.1s0-.1-.1-.2c0-.1-.1-.2-.2-.1.1-.1.1-.1 0 0 .1-.1 0-.1 0 0z" fill="#304b87"/><path d="m33.3 21.3c0-.1 0-.2-.1-.4 0 .1.1.3.1.4z" fill="#304b87"/><path d="m31.7 27.3h.2c-.1 0-.2 0-.2 0z" fill="#304b87"/><path d="m31.6 27.3c-.1 0-.1 0-.2.1s.1 0 .2-.1z" fill="#304b87"/><path d="m31.6 22.5c-.1 0 0 0 0 0z" fill="#304b87"/><path d="m32 27.3h.3c-.1 0-.2 0-.3 0z" fill="#304b87"/><path d="m32 25.3c.2 0 .4 0 .7.1.1 0 .2.1.3.1 0-.1 0-.1 0-.2 0-.3-.1-.5-.3-.8-.2 0-.4.1-.6.1-.3 0-.5 0-.7-.1 0 .1-.1.2-.1.2v.7c.2-.1.4-.1.7-.1z" fill="#304b87"/><path d="m32.3 22.5c-.1 0-.2 0-.3 0 .1.1.2 0 .3 0s.1-.1.2-.1c-.1.1-.1.1-.2.1z" fill="#304b87"/><path d="m31.7 21.7h.2c-.1 0-.1.1-.2.2v.1c.2.2.4.3.6.4h.1s0 0 .1-.1v-.1l-.1-.4-.3-1-.3 1z" fill="#304b87"/><path d="m32.3 22.5c-.1 0-.2 0-.3 0 .1.1.2.1.3 0z" fill="#304b87"/><path d="m32.5 22.3-.1-.2s0 0-.1.1c0 0 0 0-.1 0 .1.1.2.1.3.1z" fill="#304b87"/><path d="" fill="#304b87"/><path d="m32.1 22.4c.1 0 .1-.1 0 0 .1-.1.1-.1 0 0-.1-.1-.3-.3-.5-.4v.1l-.1.4h.1.2c.1 0 .2-.1.3-.1z" fill="#304b87"/><path d="m32.2 22.3s0 .1 0 0c-.2.1-.3.2-.4.2h.2.3c.1 0 .1-.1.2-.1v-.1c-.1 0-.2 0-.3 0z" fill="#304b87"/><path d="m31.3 24.5c.2.1.5.1.7.1s.4 0 .6-.1c-.1-.2-.1-.3-.2-.5l.6-.3v-.4l-.7-.2.2-.5-.1-.2c-.1 0-.1.1-.2.1s-.2 0-.3 0c-.1 0-.2 0-.2 0-.1 0-.1 0-.2-.1 0 0 0 0-.1 0l-.1.2.2.5-.4.1v.6l.3.1c0 .3 0 .4-.1.6z" fill="#304b87"/><path d="" fill="#304b87"/><path d="m31.8 22.5h.2c-.1.1-.2 0-.2 0z" fill="#304b87"/><path d="" fill="#304b87"/><path d="m31.6 22.5c.1 0 .1 0 .2.1-.1-.1-.2-.1-.2-.1z" fill="#304b87"/><path d="m31.8 22.5h.2c-.1.1-.1 0-.2 0z" fill="#304b87"/><path d="m33 27.7c0-.1-.1-.1 0 0-.1-.1-.1-.1-.2-.1-.1 0-.2 0-.3 0v.1c0 .1-.1.1-.1.1-.1.2-.3.3-.4.5.1.1.3.3.5.4l.6.3s0-.1 0-.2v-.9c0-.1 0-.2-.1-.2z" fill="#304b87"/><path d="m33.2 28.9.2-.3v-.1.1z" fill="#304b87"/><path d="m31.7 27.8.3.3c.2-.1.3-.3.4-.5 0 0 0-.1.1-.1 0 0 0 0 0-.1-.3.1-.6.3-.8.4z" fill="#304b87"/><path d="m32.8 27.5c-.1-.1-.2-.1-.2-.1s0 .1-.1.1z" fill="#304b87"/><path d="m31.5 27.6.1.1s.1.1.1.1c.2-.2.5-.3.8-.3 0 0 0-.1.1-.1-.1 0-.2-.1-.3-.1s-.2 0-.3 0h-.1c-.1 0-.1 0-.2 0h-.1c-.1 0-.1 0-.2.1 0 .1.1.1.1.2z" fill="#304b87"/><path d="" fill="#304b87"/><path d="m33.1 26.3c0-.1-.1-.1 0 0 0-.1 0-.1 0-.2 0 0 0 0 0-.1v.1c-.1.1-.1.2 0 .2-.1.2-.1.2-.1.3s0 .1-.1.2c0 .1 0 .1-.1.2 0 .1-.1.1-.1.2s-.1.1-.1.2c.1 0 .1.1.2.1s.1 0 .1.1c0 0 0 0 .1.1 0 0 0 0 .1.1v.1z" fill="#304b87"/><path d="m33.1 25.4c-.1 0-.1 0 0 0-.1 0-.1.1-.1.2 0-.1 0-.1.1-.2z" fill="#304b87"/><path d="m31.3 27.2c0 .1.1.1.1.2s.1 0 .2-.1h.1.2.1.3c.1 0 .2.1.3.1 0-.1.1-.1.1-.2s.1-.1.1-.2 0-.1.1-.2c0-.1 0-.1.1-.2 0-.1 0-.2 0-.2 0-.1 0-.1 0-.2v-.1s0 0 0-.1v-.1s0 0 0-.1 0-.1 0-.2c0-.1 0-.1 0-.2-.1 0-.2-.1-.3-.1-.2 0-.4-.1-.7-.1s-.5 0-.8.1v1.6c0 .2.1.2.1.3z" fill="#304b87"/><path d="" fill="#304b87"/><path d="m31.9 27.3h.1c-.1 0-.1 0-.1 0z" fill="#304b87"/><path d="m31.6 27.3h.1c-.1 0-.1 0-.1 0z" fill="#304b87"/><path d="m33 26c0 .1 0 .1 0 0z" fill="#304b87"/><path d="" fill="#304b87"/><path d="" fill="#5df9e6"/><path d="m33.4 17c0 .1 0 .1.1.2-.1-.1-.1-.2-.1-.2s-.1-.1 0 0c-.1-.1 0 0 0 0z" fill="#5df9e6"/><path d="m34.2 21.3c0-.1 0-.1 0-.1z" fill="#5df9e6"/><path d="" fill="#5df9e6"/><path d="m33.1 17.4c0-.1 0-.1 0 0z" fill="#5df9e6"/><path d="m32.9 18.6h.1z" fill="#5df9e6"/><path d="m33.2 17.1c0-.1 0-.1 0-.2v-.1.1z" fill="#5df9e6"/><path d="m33 18.6h.1z" fill="#5df9e6"/><path d="m32.2 16.4c.1 0 .2.1.3.1h.1s.1 0 .1.1c0 0 0 0 .1.1v-.4c-.3 0-.5 0-.6.1z" fill="#5df9e6"/><path d="m33.1 18.6c0-.1 0-.1 0 0 0-.1.1-.2.1-.3.1-.1.1-.2.1-.2 0-.1-.1-.1-.2-.1 0 .2-.1.4-.2.6z" fill="#5df9e6"/><path d="" fill="#5df9e6"/><path d="" fill="#5df9e6"/><path d="m32.9 18.6h.1z" fill="#5df9e6"/><path d="m32.7 20.3.2-.1v-1.6h.1v-.1h-.2c-.1.1-.1.3-.1.4z" fill="#5df9e6"/><path d="m33.3 18.1c0-.1 0 0 0 0z" fill="#5df9e6"/><path d="m33.1 16.6c0-.1 0-.1 0 0-.1-.1-.1-.2-.1-.2s0 0-.1-.1c0 0-.1 0-.1-.1-.1 0-.1 0-.2 0v.4s0 0 .1.1c0 0 0 0 .1.1 0 0 0 0 .1.1 0 0 0 .1.1.1v.1s0 .1.1.1v.1c0 .1 0 .1.1.2s0-.1.1-.1c0-.1 0-.1.1-.2 0 0 0 0 0-.1s0-.1 0-.2v-.1c-.2-.1-.2-.1-.3-.2z" fill="#5df9e6"/><path d="m33.1 17.9c.1 0 .2 0 .2.1v-.1z" fill="#5df9e6"/><path d="m33.2 17.1c0 .1 0 .2-.1.2s0 .1-.1.1v.5h.3c.1-.2.1-.5 0-.7 0-.1 0-.1-.1-.2 0 0 0 0 0-.1 0 0 0-.1-.1-.1 0 0 0 0 0-.1v.1c.1.1.1.2.1.3z" fill="#5df9e6"/><path d="m33 18.7c0-.1 0-.1 0-.2v.2l-.1-.1v1.6l.1-.2z" fill="#5df9e6"/><path d="" fill="#5df9e6"/><path d="" fill="#5df9e6"/><path d="m32.9 20.2v-1.6z" fill="#5df9e6"/><path d="" fill="#5df9e6"/><rect fill="#5df9e6" height="0" width="0" x="33" y="18.6"/><path d="m33.1 17.9h.3z" fill="#5df9e6"/><path d="m32.9 20.2c0 .1 0 .3.1.4 0-.1-.1-.2-.1-.4z" fill="#5df9e6"/><path d="m32.7 20.3v.6h.2v.1h.3v-.1c0-.1-.1-.1-.1-.2-.1-.1-.1-.2-.1-.4z" fill="#5df9e6"/><path d="m32.9 20.2c0 .2 0 .3.1.4 0 .1.1.1.1.2v.1h.3.1c.1 0 .1 0 .2.1 0 0 .1.1.1.2v.2h.2.1v-.1-.2h-.4v-.1h-.2v-.2h-.5v-.1-.7z" fill="#5df9e6"/><path d="" fill="#5df9e6"/><path d="m33.2 20.9v-.1z" fill="#5df9e6"/><path d="" fill="#5df9e6"/><path d="m33.4 24.9c-.1.1-.2.1-.3.3.2-.2.3-.2.3-.3z" fill="#5df9e6"/><path d="m32.2 30.6.1.2-.1.2.6-1.1.5-1c-.1 0-.1 0-.2-.1z" fill="#5df9e6"/><path d="" fill="#5df9e6"/><path d="m33.2 26.5c.1.1.1.2.2.2s-.1-.1-.2-.2z" fill="#5df9e6"/><path d="m33.4 25.6v-.7c-.1.1-.2.1-.3.3 0 .1-.1.1-.1.2v.1c.2 0 .3 0 .4.1z" fill="#5df9e6"/><path d="m33.1 26.4c0 .1.1.1.1.1.1 0 .2.1.3.1v-1c-.1-.1-.2-.1-.3-.1v.9z" fill="#5df9e6"/><path d="m33.4 26.8v-.2c-.1 0-.2-.1-.3-.1.2.1.3.2.3.3z" fill="#5df9e6"/><path d="m33.1 25.3c0-.1 0-.1.1-.2s.2-.2.3-.3v-.7c-.1.1-.2.1-.3.1v1.1z" fill="#5df9e6"/><path d="m33.2 28c0-.1 0-.1 0 0-.1-.1-.1-.1-.1-.2 0 0 .1 0 .1.2 0-.1 0-.1 0 0z" fill="#5df9e6"/><path d="m33.4 28.4c0-.1 0-.1-.1-.2 0 0 0 0 0-.1v.1c.1.1.1.1.1.2z" fill="#5df9e6"/><path d="" fill="#5df9e6"/><path d="m32.5 21.7s.1.1.1.1 0 0 0-.1c0 0 0 0 0-.1z" fill="#5df9e6"/><path d="m33.2 21.8c-.1 0-.1.1 0 0-.1.1-.1 0 0 0z" fill="#5df9e6"/><path d="m33 22c.1 0 .1 0 0 0 .1-.1.1-.1.1-.1s0 0-.1.1c.1 0 .1 0 0 0z" fill="#5df9e6"/><path d="m32.6 21.7v.1s0 0 .1.1.1.1.1.2v.1.1s0 0 .1-.1c0 0 0 0 0-.1v-.1s0 0 0-.1v-.1s-.1-.1-.1-.1z" fill="#5df9e6"/><path d="m33.1 24.4c.1 0 .2-.1.3-.1v-.6l-.3.1z" fill="#5df9e6"/><path d="m33.1 21.9c0 .1 0 .1-.1.1v.1s0 0-.1.1.1.1.1.1c0 .1 0 .1.1.2v.1.3.4l.3.1v-.8c0-.1 0-.2 0-.3 0 0 0 0 0-.1s0-.1-.1-.2 0-.1-.2-.1c.1-.1.1-.1 0 0 0-.1 0 0 0 0z" fill="#5df9e6"/><path d="m33 22c.1 0 .1 0 0 0 .1-.1.1-.1.1-.1s0 0-.1.1c.1 0 .1 0 0 0z" fill="#5df9e6"/><path d="m32.9 22.2c.1-.1.1-.1 0 0 .1-.1.1-.2.1-.2s0 .1-.1.2c.1-.1.1-.1 0 0z" fill="#5df9e6"/><path d="m33.1 23.8.3-.2v-.2l-.3-.1z" fill="#5df9e6"/><path d="m33.1 28.8c.1 0 .1 0 .2.1l.2-.3v-.1-.1c0-.1 0-.1-.1-.2 0 0 0 0 0-.1 0 0 0-.1-.1-.1 0 0 0 0 0-.1 0 0 0-.1-.1-.1 0 0 0-.1-.1-.1v.9z" fill="#5df9e6"/><path d="m33.2 26.5c-.1-.1-.1-.1-.1-.1v1.4s0 0 .1.1c0 0 0 .1.1.1v.1s0 .1.1.1v.1c0 .1 0 .1.1.2v.1-.1-1.7c-.1-.1-.2-.2-.3-.3z" fill="#5df9e6"/><path d="" fill="#5df9e6"/><path d="" fill="#768dcc"/><path d="" fill="#768dcc"/><path d="m22.5 47.8c.1 0 .1-.1.2-.1-.1 0-.1 0-.2.1z" fill="#768dcc"/><path d="m22.7 46.8v-.2h-.1c-.2 0-.4-.1-.6-.2v.9c.2-.1.4-.2.6-.4 0 0 .1 0 .1-.1z" fill="#768dcc"/><path d="m22.7 47.6c-.1.1-.1.1-.2.1.1 0 .1 0 .2-.1z" fill="#768dcc"/><path d="m22 47.9c.2 0 .3-.1.5-.1-.1 0-.3.1-.5.1z" fill="#768dcc"/><path d="m22.5 47.8c.1 0 .1-.1.2-.1v-.8s0 .1-.1.1c-.1.2-.3.3-.6.4v.6c.2-.1.4-.2.5-.2z" fill="#768dcc"/><path d="m22.7 47.6c-.1 0-.1.1-.2.1-.1.1-.3.1-.4.1v.3h.6z" fill="#768dcc"/><path d="m22.5 47.8c-.1.1-.3.1-.4.1.1 0 .3-.1.4-.1z" fill="#768dcc"/><path d="m22.7 50.2h-.4-.3v1.7h.7z" fill="#768dcc"/><path d="m22.3 50.2h.4z" fill="#768dcc"/><path d="m22.7 51.9h-.7v.5h.7z" fill="#768dcc"/><path d="m22 50.2h.3z" fill="#768dcc"/><path d="m22 52.4h.6v1h-.6z" fill="#768dcc"/><path d="m22.7 50.2v-2h-.7v2h.3z" fill="#768dcc"/><path d="m22.7 52.4h-.7z" fill="#768dcc"/><path d="" fill="#768dcc"/><path d="m22.6 44.5s.1 0 0 0l.1-.4v-.1c-.1 0-.3 0-.4 0s-.1 0-.2 0v.1c.1 0 .2.1.3.2 0 0 .1.1.2.2z" fill="#768dcc"/><path d="" fill="#768dcc"/><path d="m22.2 45.5c-.1 0-.1 0-.2 0z" fill="#768dcc"/><path d="m22.7 46.6v-.8s-.1-.1-.1-.1c-.1 0-.1-.1-.2-.1-.1 0-.1 0-.2 0v.9s.2 0 .5.1c-.1 0-.1 0 0 0z" fill="#768dcc"/><path d="m22.2 45.5c.1 0 .1 0 .2.1.1 0 .1.1.1.1v-1.2s0 0-.1 0c-.1-.1-.2-.1-.3-.2s-.2-.1-.3-.2v1.4z" fill="#768dcc"/><path d="m22 44.1c.1 0 .2.1.3.2-.1-.1-.2-.2-.3-.2z" fill="#768dcc"/><path d="m22.6 44.5s.1 0 0 0z" fill="#768dcc"/><path d="m22.6 38.5-.4-.2c-.1.1-.2.2-.2.2-.1.2-.1.4-.1.7v.1l.2.1.3.4.2-.2c0-.1 0-.3 0-.4-.1-.2 0-.5 0-.7z" fill="#768dcc"/><path d="m22.2 38.3c-.1 0-.2.1-.2.2.1 0 .2-.1.2-.2z" fill="#768dcc"/><path d="m22.6 39.6-.2.2-.3-.4-.2-.1c0 .2 0 .4.1.5l.7.4c-.1-.2-.1-.4-.1-.6z" fill="#768dcc"/><path d="m22.6 40.6c.1.1.2.2.3.2l.1.1h.1c-.1-.2-.3-.4-.4-.6z" fill="#768dcc"/><path d="m22.7 40.3-.7-.5c0 .1.1.2.1.3z" fill="#768dcc"/><path d="m22.8 40.3-.6-.2c.1.2.3.4.5.6z" fill="#768dcc"/><path d="m22.9 43.2-.4-.2c-.1.2-.3.4-.3.6 0 0 .1.1.1.1.1.1.3.2.4.3 0-.3.1-.6.2-.8z" fill="#768dcc"/><path d="m22.1 43.6c0 .1-.1.3-.1.4h.2.4c-.2-.1-.3-.1-.4-.3 0 0 0-.1-.1-.1z" fill="#768dcc"/><path d="m22.8 37.9-.3-.1c-.1.2-.2.3-.3.5l.4.2c.1-.2.1-.4.2-.6z" fill="#768dcc"/><path d="m22.2 38.2c.2-.1.3-.2.4-.4-.2.1-.3.3-.4.4z" fill="#768dcc"/><path d="" fill="#768dcc"/><path d="m22.8 37.9c.1-.1.2-.3.3-.4-.2.1-.3.1-.5.2v.1z" fill="#768dcc"/><path d="" fill="#768dcc"/><path d="m23.3 42.5-.3.2s0 0-.1 0h.2c0-.1.1-.2.2-.2z" fill="#768dcc"/><path d="m22.5 43 .4.2c.1-.2.1-.4.2-.5h-.2c-.2.1-.3.2-.4.3z" fill="#768dcc"/><g fill="#536299"><path d="m16.7 48-1.7-.6-.4.3.6.2.8.3.8.3h.1.2l.9-.1c.3-.1.6-.2.9-.2h.9.3v-.5l-3.2.3c-.1 0-.2 0-.2 0z"/><path d="m18.6 51.9-1.5-.7-.4.2.5.3 1.4.7h.1.1 1.1v-.5z"/><path d="m49 47.4-1.6.6h-.1s-.1 0-.2 0l-3.1-.4v.5h.3.9c.3 0 .6.1.9.2l.9.1h.2.1l.8-.3.8-.3.6-.2z"/><path d="m45.5 51.9c-.1.1-.2.1-.2.1h-1.3v.5h1.1.1.1l1.4-.7.5-.3-.4-.2z"/><path d="m31.3 14.1v-2.4c0-.1 0-.1 0-.1v-.1l.5-1.1.2-.5-.2-.4-.1.5-.1.1-.8 1.6v.1.1 2.4c.1-.1.3-.2.5-.2z"/><path d="m28 23.8c.2.2.4.4.5.6v-.8l-.1-.3z"/><path d="m26.3 20.5h.2l.6 1 .2.4.4.6v.3l.6-.2s0-.1-.1-.1h-.1c-.3-.1-.5-.4-.7-.7l-1.8-4.6s0-.1 0-.2v-.1l.2-1.7-.4-.3-.1.6-.2 1.8v.1.2z"/><path d="m26.2 27.1s.1 0 0 0z"/><path d="m25.3 23.1.2-.1s.1-.1.1-.1l-.1-.1-.2.2v.1-.1z"/><path d="m19.1 19.2c0 .1 0 .2.1.2l.1.2h.1c.1 0 .2.1.3.1 0 0 .1.1.2.1.1.1.3.2.4.3.5.4.9 1 1.1 1.6l.3.2h.2l-2.4-2.9s-.1-.1-.1-.1v-.1l-.3-1.8-.4-.2.1.6z"/><path d="m13.7 22.8c.1.1.1.2.2.2l.9.6c-.1-.2-.1-.5-.1-.7l-.7-.4s-.1-.1-.1-.1v-.1l-.9-1.6h-.5l.3.6z"/><path d="m22.8 34.9v.1c0 .1.1.2.1.3s.1 0 .1-.1c.1 0 .1-.1.2-.2 0 0 0 0 .1-.1s.1-.2.2-.3v-.1c0-.1 0-.2.1-.3-.3.4-.5.6-.8.7z"/><path d="m20.7 31.4.1.1z"/><path d="m13.7 29.9c.1.1.1.2.2.2l2.4 1.6.4-.3.2.1-2.9-2s-.1-.1-.1-.1v-.1l-.9-1.5h-.5l.3.6z"/><path d="m19 32.4.2-.1c0 .1-.1.1-.2.1z"/><path d="m10.2 34.7-1.4-1.2-.4.1.4.4 1.4 1.1.1.1s.1.1.1.1l.3.1c0-.2.1-.4.1-.5l-.5-.1c-.1-.1-.1-.1-.1-.1z"/><path d="m15.9 35.7.3.1z"/><path d="m19.8 44.1h-.2l-.1.3.5.2v-.5s0 0 0-.1c0 .1-.1.1-.2.1z"/><path d="m19 43.8h.1c.1 0 .1-.1.2-.1 0 0 .1 0 .1-.1l.2-.8c-.1.1-.1.1-.2.2-.3.2-.6.3-.9.2l-4.9-1c-.1 0-.1 0-.1-.1l-.1-.1-1.3-1-.4.1.5.4 1.4 1.1.1.1s.1.1.1.1l4.9 1z"/><path d="m17.7 24.3c.2 0 .3.1.4.3l.7.9.2.2.3.4-.5.4v-.1l-.2.2c-.1.1-.1.2-.1.2v.2l.1.1.1.1c0 .1.1.1.2.1s.1 0 .2-.1l.3-.2-.1-.1v-.1c0-.1-.1-.1 0-.2 0 0 0 0 0-.1s0-.2.1-.2l.2-.2v.1l.3-.3.2-.2-1.3-1.5c-.1-.1-.2-.2-.4-.3-.3-.1-.5-.2-.7-.5-.3-.3-.4-.8-.3-1.2.1-.4.3-.7.6-.9-.2 0-.4.1-.5.2-.2.1-.4.3-.5.5-.3.5-.3 1.2.1 1.7.1.3.3.5.6.6z"/><path d="m21.5 24.2v.2l.1-.1.1.1.3-.2s-.1-.1-.2-.1-.1 0-.2.1z"/><path d="m23 31c0-.1.1-.2.1-.2-.1-.1-.1-.2-.2-.2 0 0-.1-.1-.1-.1-.1-.2-.2-.4-.3-.6-.1-.1-.1-.3-.2-.4 0-.1 0-.2 0-.2l-1.4-1.7c-.1-.1-.1-.2-.2-.3-.1-.2-.2-.5-.2-.8 0-.1 0-.2.1-.3l-.2.2-.4.3v.2.3c.1.2.1.3.3.5l.7.8 1.5 1.8z"/><path d="m24.4 29.1c.1.1.2.3.3.4 0 0 .1.1.1.1.1.1.2.2.3.4l.6 1.9-.7.1v-.1l-.2.1s-.1 0-.1.1 0 .1-.1.1c-.1.1-.1.2-.1.2v.1.1c0 .1.1.1.1.1h.1.2l.2-.1h.2v-.1-.1c0-.1 0-.1 0-.1s0-.1.1-.1c0-.1.1-.2.2-.2l.2-.1v.1l.6-.2-.7-1.8c0-.2-.2-.3-.3-.4s-.1-.1-.2-.2-.2-.2-.2-.4c0 0 0-.1-.1-.1 0 0 0 0 0-.1-.1-.6.1-1.1.5-1.5s.1-.1.1-.1c.2-.1.3-.2.5-.2-.1 0-.2 0-.3-.1h-.1c-.2 0-.3.1-.5.1-.4.2-.6.5-.8.9-.1.3-.1.5 0 .8 0 .2.1.3.1.4z"/><path d="m27 35.5-.5-1.6c-.1-.2-.1-.4-.1-.6s.1-.3.1-.4v-.1c0-.1.1-.1.1-.2l-.6.2-.3.1c0 .1-.1.2-.1.2v.2.1.2c0 .1 0 .2.1.3l.5 1.6.6 1.9c.2.4.4.8.5 1.2l.7.4z"/><path d="m30 32.7h.4v-.1c-.1-.1-.2-.2-.3-.4l-.1-.3s-.1.1-.1.1c-.1 0-.1.1-.1.2v.1.1c0 .2.1.3.2.3z"/><path d="m31.2 34.1c0-.4.1-.7.3-.9-.2 0-.4-.1-.6-.2-.1.1-.1.2-.2.2 0 .1-.1.1-.1.2-.1.2-.1.3-.1.5v5.8.2l.1.1.4.7.2.1c.3.2.5.4.7.6 0 0 0 .1.1.1l-.1-.1-.6-1.2-.1-.1c0-.1 0-.1 0-.2v-5.3z"/><path d="m16.3 39.3s.1.1.1.1h.1.1.2v-.1c-.1-.2-.1-.4-.2-.6 0 0 0 0 0-.1s0-.3 0-.4l-.2.5v.1s0 0 0-.1l-.1.2v.1s0 .1.1.1c-.1.1-.1.2-.1.2z"/><path d="m13.2 34.9c-.2.1-.3.3-.4.4-.1.2-.2.3-.2.5v.1.3c0 .1 0 .2.1.3.1.2.2.4.3.5s.3.3.5.4.3.1.5.1h.4.2.3l1.8.7c0-.2 0-.4.1-.7l-1.5-.5c-.2-.1-.3-.1-.5 0-.3.1-.6.1-.8-.1-.5-.2-.8-.6-.9-1 0-.2-.1-.4 0-.6 0-.1 0-.3.1-.4z"/><path d="m17.7 35.6v.1h.1c.1-.1.2-.2.3-.2l.1-.2c-.1 0-.1 0-.2 0s-.1.1-.1.1z"/><path d="m18.8 37.5c-.1.2-.1.4-.2.6v.3c0 .1 0 .2.1.3 0 .1.1.2.1.3.1.1.2.2.3.3.1 0 .1.1.2.1.1.1.3.1.4.2h.1.1c0-.1 0-.2 0-.2 0-.1 0-.1 0-.2 0-.1 0-.1 0-.2 0 0 0 0-.1 0s-.1-.1-.2-.1c-.5-.4-.7-1.1-.4-1.6 0-.1.1-.2.2-.4-.1.1-.2.1-.3.2 0 0-.1.1-.1.1-.1.1-.2.2-.2.3z"/><path d="m27.3 43.6h.4l-.4-.3c-.1.2 0 .2 0 .3z"/><path d="m36 23.7-.5-.3-.1.3v.8c.2-.3.4-.5.6-.8z"/><path d="m37.8 27.1c-.1 0-.1 0-.1.1 0-.1.1-.1.1-.1z"/><path d="m38.6 23.1h.2l-.2-.1v-.1l-.2-.2-.1.1c0 .1 0 .1.1.1z"/><path d="m40.5 34.7c0 .1.1.2.2.3 0 0 0 0 .1.1l.2.2s.1 0 .1.1c0-.1 0-.2.1-.3v-.1-.1c-.3-.1-.5-.3-.7-.6z"/><path d="m43.2 31.5.1-.1z"/><path d="m44 44.6.5-.2-.1-.3h-.1-.1c-.1 0-.2 0-.2-.1v.1z"/><path d="m42.3 24.3.1.1.1-.1-.1-.1-.1-.1c-.1 0-.1-.1-.2-.1s-.1 0-.2.1z"/><path d="m44 26.8-.5-.4-.2-.2c0 .1.1.2.1.3 0 .3-.1.5-.2.8 0 .1-.1.2-.2.3l-1.4 1.7v.3c0 .1-.1.3-.2.4-.1.2-.2.4-.3.6s-.1.1-.1.1c-.1.1-.1.2-.2.2.1.1.1.2.1.2l.5-.6 1.5-1.8.7-.8c.1-.1.2-.3.3-.5 0-.1 0-.2 0-.3.1-.2.1-.3.1-.3z"/><path d="m39.4 32.4c0-.1 0-.2-.1-.2.1 0 .1.1.1.2z"/><path d="m35.6 31.2h.2v-.1h-.1-.1c-.1 0-.1 0-.2 0s-.1.1-.1.1z"/><path d="m37 35.5-1.1 3.5.7-.4c.1-.4.3-.9.5-1.2l.6-1.9.5-1.6c0-.1 0-.2.1-.3 0-.1 0-.1 0-.2 0 0 0 0 0-.1s0-.2 0-.2c0-.1-.1-.2-.1-.2l-.3-.1-.6-.2c.1.1.1.1.1.2v.1c.1.1.1.3.1.4 0 .2 0 .4-.1.6z"/><path d="m46 35.4c.1.1.2.2.3.2h.1v-.1l-.1-.1c0-.1-.1-.1-.1-.1-.1 0-.1 0-.2 0z"/><path d="m44.1 39.6h.1z"/><path d="m36.7 43.6c0-.1 0-.2 0-.3l-.4.3z"/><path d="m30 21.4h.4v-.1-.1c0-.1.1-.2.1-.2s.1-.1.1-.1h.1.3s-.1.1-.1.1h.4.2v-.6-.1-1.3c0-.2-.1-.3-.2-.5 0-.1-.1-.1-.1-.2-.1-.1-.1-.3-.1-.4v-.1-.1c0-.2.1-.5.2-.7.2-.3.4-.6.8-.7.2-.1.3-.1.5-.1h.2s-.1 0-.1-.1c-.1-.1-.2-.1-.4-.1-.1 0-.2 0-.3 0h-.1c-.1 0-.1 0-.2 0 0 0 0 0-.1 0 0 0 0 0-.1 0-.1 0-.1 0-.2.1h-.1c-.1 0-.1.1-.1.1s-.1.1-.1.1-.1.1-.1.1-.1.1-.1.1-.1.1-.1.1 0 .1-.1.1c0 .1 0 .1-.1.2v.1.3c0 .2 0 .3.1.4 0 .1.1.2.2.3 0 0 0 .1.1.1v.1.1.2 1.5.7h-.3-.3s0-.1.1-.1h-.2-.1s-.1.1-.1.1c-.1 0-.1.1-.1.2v.1.1c0 .1 0 .1.1.2-.1.1 0 .1 0 .1z"/><path d="m33.8 20.9h.4c0-.1 0-.1-.1-.2 0 0-.1-.1-.2-.1h-.1-.1v.2z"/><path d="m32 31.3c0-.1 0-.1 0 0l.1-.1v-.1l.1-.1.1-.1-.1-.2-.9-1.7-.1-.1v-.1-1.2-.6-1.6-.7-.3-.5-.6-.4c0-.2 0-.4.1-.6.1-.2.2-.3.3-.4h.1c.1-.1.1-.1.2-.2h-.2-.2-.5s0 .1-.1.1c-.1.1-.2.2-.2.3-.1.2-.1.3-.1.5v.8.2.6.7.7 1 .2 1.7.1.1l.1.1.1.2.8 1.6.4.7c0-.1 0-.1 0 0z"/><path d="m22.8 40.3c.1.2.2.4.4.6l.1.1.4.2.1-.1.5-.2.1-.1c.1-.1.3-.2.4-.3.3-.2.5-.6.6-.9 0-.1 0-.2 0-.3v-.1-.1c0-.4-.1-.8-.4-1.1-.3-.4-.8-.7-1.4-.7-.2 0-.4 0-.6.1-.1.1-.2.3-.3.4-.1.2-.2.4-.2.6-.1.2-.1.5-.1.7v.4c.2.3.2.5.4.8-.1 0-.1 0 0 0z"/><path d="m41.3 44c0-.3-.1-.5-.2-.8-.1-.2-.1-.4-.2-.5s-.1-.1-.2-.2l-.4-.2-.3.1-.4.2s-.1.1-.1.1c-.2.1-.4.3-.6.6-.1.1-.1.2-.2.4h.7.1.1c.3.1.6.3.7.6 0 .1.1.2.1.3 0 .4-.2.7-.6.9s0 0-.1 0-.2.1-.4.1h-.6-.4-.3-.4-1-.1-2.1-.7-3.7-.7-2.1-.1-1-.4-.3-.7-.4c-.2 0-.3 0-.4-.1-.3-.2-.6-.5-.6-.9 0-.1 0-.2.1-.3.1-.3.4-.6.8-.6h.1.7c0-.1-.1-.2-.2-.4s-.3-.4-.6-.6c0 0-.1-.1-.1-.1l-.1-.2-.3-.2-.4.2c-.1.1-.1.1-.2.2-.1.2-.2.3-.2.5-.1.2-.1.5-.2.8v.1.4 1.2.8.2.8.6 2 1.7.5 1.1h2.2 1.4 3.2 4.9 3.2 1.2 1 1 .4v-1.1-.5-1.7-2-.6-.8-.2-.8-1.2-.4zm-11.6 5.2h-2.2-.6v-.4h1.3 1.1 5.5 1.1 1.3v.4h-.6-2.2zm5-1.9h2.4.1v.4h-.1-2.2-5.7-2.2-.1v-.4h.1 2.4zm-1.1 3.4h-3.2-2.1-1.4v-.4h1.1 2.4 3.4 2.4 1.1v.4h-1.4z"/><path d="m41.2 37.9c-.1-.1-.2-.3-.3-.4-.2-.1-.4-.1-.6-.1-.6 0-1.1.3-1.4.7-.2.3-.4.7-.4 1.1v.1.1.3c.1.4.3.7.6.9.1.1.2.2.4.3l.1.1.5.2.1.1.4-.2.1-.1c.1-.2.3-.4.4-.6s0 0 0-.1c.1-.2.1-.4.2-.7 0-.1 0-.3 0-.4 0-.2 0-.5-.1-.7.1-.2.1-.4 0-.6z"/></g><path d="m41.3 47.6c.1.1.1.1.2.1-.1 0-.1 0-.2-.1z" fill="#5df9e6"/><path d="m41.7 50.2h.3z" fill="#5df9e6"/><path d="" fill="#5df9e6"/><path d="m41.5 47.8c-.1 0-.1-.1-.2-.1.1 0 .1 0 .2.1z" fill="#5df9e6"/><path d="m41.3 46.6v.2s0 .1.1.1c.1.2.3.3.6.4v-.9c-.2.1-.4.1-.7.2.1 0 .1 0 0 0z" fill="#5df9e6"/><path d="m42 47.9c-.2 0-.3-.1-.4-.1s.2.1.4.1z" fill="#5df9e6"/><path d="m41.3 46.8v.8c.1.1.1.1.2.1.1.1.3.1.5.1v-.6c-.2-.1-.4-.2-.6-.4 0 .1-.1.1-.1 0z" fill="#5df9e6"/><path d="m42 47.9c-.2 0-.3-.1-.4-.1s-.1-.1-.2-.1v.6h.6z" fill="#5df9e6"/><path d="m41.7 50.2h-.4z" fill="#5df9e6"/><path d="m42 47.9c-.2 0-.3-.1-.4-.1 0 0 .2.1.4.1z" fill="#5df9e6"/><path d="m41.3 50.2v1.7h.7v-1.7h-.3z" fill="#5df9e6"/><path d="m41.3 50.2h.4z" fill="#5df9e6"/><path d="m41.3 51.9v.5h.7v-.5z" fill="#5df9e6"/><path d="m41.3 52.4h.6v1h-.6z" fill="#5df9e6"/><path d="m42 50.2h-.3z" fill="#5df9e6"/><path d="m41.3 50.2h.4.3v-2h-.7z" fill="#5df9e6"/><path d="m41.3 52.4h.7z" fill="#5df9e6"/><path d="m41.3 52.4h.7z" fill="#5df9e6"/><path d="" fill="#5df9e6"/><path d="m41.8 44c-.2 0-.3 0-.4 0v.1.4c.1-.1.2-.1.3-.2s.2-.1.3-.2v-.1c-.1 0-.2 0-.2 0z" fill="#5df9e6"/><path d="m41.8 45.5h.2c-.1 0-.2 0-.2 0z" fill="#5df9e6"/><path d="" fill="#5df9e6"/><path d="m41.8 45.5c-.1 0-.1 0-.2.1-.1 0-.1.1-.1.1v.8h.1c.2 0 .4-.1.6-.2v-.9c-.3.1-.4.1-.4.1z" fill="#5df9e6"/><path d="m41.3 44.5v1.2s.1-.1.1-.1c.1 0 .1-.1.2-.1h.2v-1.4c-.1 0-.2.1-.3.2.1.1 0 .1-.2.2z" fill="#5df9e6"/><path d="m42 44.1c-.1 0-.2.1-.3.2 0-.1.2-.2.3-.2z" fill="#5df9e6"/><path d="m41.7 44.3c-.1.1-.2.2-.3.2.1-.1.2-.1.3-.2z" fill="#5df9e6"/><path d="m42 38.5c-.1-.1-.2-.2-.2-.2l-.4.2c.1.2.1.5.1.7v.4l.2.2.3-.4.2-.1v-.1c-.1-.2-.1-.4-.2-.7z" fill="#5df9e6"/><path d="m42 38.5c0-.1-.1-.2-.2-.3h-.1c.1.2.2.3.3.3z" fill="#5df9e6"/><path d="m41.9 39.4-.3.4-.2-.2c0 .2-.1.4-.2.7l.7-.4c.1-.2.1-.3.1-.5z" fill="#5df9e6"/><path d="m40.9 40.9s.1 0 0 0l.2-.1c.1-.1.2-.1.3-.2l-.2-.3c-.1.3-.2.5-.3.6z" fill="#5df9e6"/><path d="m41.2 40.3.6-.2c0-.1.1-.2.1-.3l-.7.5c.1 0 .1 0 0 0z" fill="#5df9e6"/><path d="m41.2 40.4.2.3c.2-.2.4-.3.5-.6l-.7.3c0-.1 0-.1 0 0z" fill="#5df9e6"/><path d="m41.1 43.2c.1.2.1.5.2.8.2-.1.3-.1.4-.3 0 0 .1-.1.1-.1-.1-.2-.2-.4-.3-.6z" fill="#5df9e6"/><path d="m41.3 44h.4.2c0-.1 0-.3-.1-.4 0 0-.1.1-.1.1-.1.1-.2.2-.4.3z" fill="#5df9e6"/><path d="m41.8 38.3c-.1-.1-.2-.3-.3-.5l-.3.1c.1.2.2.4.2.6z" fill="#5df9e6"/><path d="m41.8 38.3c0-.2-.2-.3-.3-.5 0 .2.1.4.3.5z" fill="#5df9e6"/><path d="" fill="#5df9e6"/><path d="m41.2 37.9.3-.1s0 0 0-.1c-.1-.1-.3-.2-.5-.2 0 .2.1.3.2.4z" fill="#5df9e6"/><path d="" fill="#5df9e6"/><path d="m41.1 42.7-.4-.2.2.2z" fill="#5df9e6"/><path d="m41.1 43.2.4-.2c-.1-.1-.3-.3-.4-.3h-.2c.1.1.2.3.2.5z" fill="#5df9e6"/><path d="m29.3 47.3c-.1.1-.1.3-.2.4h5.7c-.1-.1-.1-.3-.2-.4z" fill="#768dcc"/><path d="m29.3 47.3h-2.4v.4h2.2c.1-.1.2-.3.2-.4z" fill="#768dcc"/><path d="m26.8 47.3h.1v.4h-.1z" fill="#768dcc"/><path d="m34.9 47.7h2.2v-.4h-2.4c0 .1.1.3.2.4z" fill="#768dcc"/><path d="m37.1 47.3h.1v.4h-.1z" fill="#768dcc"/><path d="m34.5 49c.1 0 .1-.1.2-.1h-5.5c.1 0 .1.1.2.1s.1.1.2.2c0 0 0 .1.1.1h4.6s0-.1.1-.1c0-.2.1-.2.1-.2z" fill="#768dcc"/><path d="m29.4 48.9s-.1-.1-.2-.1h-1.1c-.2.2-.5.3-.7.4h2.2s0-.1-.1-.1c.1-.1 0-.1-.1-.2z" fill="#768dcc"/><path d="m26.8 48.8v.4h.6c.3-.1.5-.2.7-.4z" fill="#768dcc"/><path d="m34.7 48.8c-.1.1-.1.1-.2.2 0 0-.1.1-.1.1s-.1.1-.1.1h2.2c-.3-.1-.5-.2-.7-.4z" fill="#768dcc"/><path d="m37.2 48.8h-1.3c.2.2.5.3.7.4h.6z" fill="#768dcc"/><path d="m35.7 50.6c0 .1 0 .1 0 0z" fill="#768dcc"/><path d="m33.7 50.3h-3.4c0 .1.1.2.1.3v.1h3.2s0 0 0-.1.1-.2.1-.3z" fill="#768dcc"/><path d="" fill="#768dcc"/><path d="" fill="#768dcc"/><path d="m28.2 50.5c-.1 0-.1-.1 0 0-.1-.1-.1 0 0 0z" fill="#768dcc"/><path d="m35.9 50.4s0 .1 0 0c-.1.1-.1.1 0 0z" fill="#768dcc"/><path d="m36.1 50.3c-.1.1-.1.1-.1.1s0 0 .1-.1c-.1 0 0 0 0 0z" fill="#768dcc"/><path d="" fill="#768dcc"/><path d="m28 50.4c-.1-.1-.1-.1-.1-.1s.1 0 .1.1z" fill="#768dcc"/><path d="m26.8 50.3v.4h1.4v-.1s0 0-.1-.1 0 0-.1-.1c0 0 0 0-.1 0 0 0 0 0-.1 0 0 0 0 0-.1 0z" fill="#768dcc"/><path d="m28.3 50.7c0-.1 0-.1 0 0 0-.1 0 0 0 0z" fill="#768dcc"/><path d="m30.3 50.3h-2.4.1.1.1s0 0 .1.1 0 0 .1.1h2.1s0 0 0-.1c-.1.1-.2 0-.2-.1z" fill="#768dcc"/><path d="m28.3 50.6c-.1 0-.1 0 0 0-.1-.1-.1-.1 0 0-.1 0-.1 0 0 0z" fill="#768dcc"/><path d="" fill="#768dcc"/><path d="m37.2 50.3h-1.1s0 0-.1 0c0 0 0 0-.1 0 0 0 0 0-.1 0 0 0 0 0-.1.1s0 0-.1.1v.1h1.4v-.3z" fill="#768dcc"/><path d="m35.7 50.6c0 .1 0 .1 0 0z" fill="#768dcc"/><path d="m35.7 50.6c.1 0 .1 0 0 0 .1-.1.1-.1 0 0 .1-.1.1-.1.1-.1s0 0 .1-.1h.1.1.1-2.4c0 .1-.1.2-.1.3v.1l2-.2c0 .1 0 .1 0 0z" fill="#768dcc"/><path d="m35.8 50.5c0 .1 0 .1 0 0z" fill="#768dcc"/><path d="" fill="#768dcc"/><path d="m53.1 37.5.9-.2c.4-.1.7-.2 1-.5l.1-.1 1.4-1.1.5-.4 2.9-2.4-3.6-1.1-2.5-.7c-.2-.1-.4-.1-.6-.1s-.3 0-.5.1l-.7.2c0-.1.1-.1.1-.2v-.1l.9-1.6.3-.6 1.8-3.3-3.7.3-1.9.2 1.8-1.2c.3-.2.6-.5.7-.8v-.1l.9-1.6.3-.6 1.8-3.3-3.7.3-2.6.2c-.4 0-.7.2-1 .4l-.6.4c-.1 0-.2-.1-.3-.1l.3-1.8.1-.6.6-3.7-3.3 1.6-2.4 1c-.3.2-.6.4-.8.7l-.4.6c0-.1 0-.1 0-.2v-.1l-.2-1.8-.1-.6-.4-3.7-2.9 2.4-2 1.6s0 0-.1.1v-3.2c0-.4-.1-.7-.3-1.1l-1.3-2.2-1.8-3.3-1.7 3.3-.3.6-.8 1.7v.1c-.2.3-.3.7-.3 1.1v3.1l-2-1.6-2.9-2.4-.4 3.7-.1.6-.2 1.8v.1.2l-.4-.6c-.2-.3-.5-.5-.8-.7l-2.4-1-3.4-1.5.6 3.7.1.6.3 1.7c-.1 0-.2.1-.3.1l-.5-.4c-.3-.2-.7-.3-1-.4l-2.6-.2-3.7-.3 1.8 3.3.3.6.9 1.6v.1c.2.3.4.6.7.8l1.8 1.2-1.9-.2-3.7-.3 1.8 3.3.3.6.9 1.6v.1c0 .1.1.1.1.2l-.8-.2c-.2 0-.3-.1-.5-.1s-.4 0-.6.1l-2.5.7-3.6 1.1 3 2.1.5.4 1.4 1.1.1.2c.3.2.6.4 1 .5l.9.2c.3.6.7 1.1 1.2 1.5l-1.1.3-3.6 1.2 2.9 2.3.5.4 1.4 1.1.1.1c.3.2.6.4 1 .5l1.4.3-1.3 1-3 2.2 3.5 1.3.6.2.7.2-2.7 1.5 3.3 1.7.5.3.2.1h-7.5c-.6 0-1 .4-1 1s.4 1 1 1h46c.6 0 1-.4 1-1s-.4-1-1-1h-7.5l.2-.1.5-.3 3.3-1.7-2.7-1.6.7-.2.6-.2 3.5-1.3-3-2.2-1.3-1 1.4-.3c.4-.1.7-.2 1-.5l.1-.1 1.4-1.1.5-.4 2.9-2.3-3.6-1.1-1.1-.3c.6-.4 1-.9 1.2-1.5zm-7.9 12.7.2.1 1.4.8.4.2-.5.3-1.4.7h-.1-.1-1.1v-.5-1.7h.1 1c0 .1.1.1.1.1zm-28.1 1 1.4-.8.2-.1h.1 1 .1v1.7.5h-1.1-.1-.1l-1.4-.7-.5-.3zm-4.5-15.4c0-.2.1-.3.2-.5.1-.2.2-.3.4-.4s.1 0 .1-.1h.1.1.1.1.1.1.1.1.2c.4.1.8.3 1 .6 0 .1.1.1.1.2.1 0 .1.1.2.1l.4.2.3.1.6.2.4.2c-.1.1-.1.2-.2.2-.1.2-.2.3-.2.5 0 .1-.1.2-.1.3v.3c0 .2-.1.4-.1.7l-1.8-.7c-.1 0-.2 0-.3 0-.1 0-.1 0-.2 0s-.2 0-.4 0-.3 0-.5-.1-.4-.2-.5-.4-.3-.3-.3-.5c0-.1-.1-.2-.1-.3s0-.2 0-.3c0-.2 0-.3 0-.3zm-.1-8.1h.5l2.1.2c.1 0 .1 0 .1.1l4.1 2.8c.1 0 .1.1.2.1s.1.1.1.1c0 .1.1.1.1.2v.1.2.2.1l.5-.8.3.4.1.1-.2.3h.1l.1.2 1.3.9h.1l.5.5c.2.3.5.5.8.6.1.1.2.2.2.2 0 .1 0 .2-.1.3v.1c0 .1-.1.2-.2.3 0 0 0 0-.1.1s-.1.1-.2.2c0 0-.1 0-.1.1 0-.1 0-.2-.1-.3v-.1c0-.1-.1-.1-.1-.2s-.1-.1-.1-.2-.1-.1-.1-.2-.1-.1-.1-.2c0 0-.1-.1-.1-.2-.1-.1-.1-.1-.2-.2-.1 0-.1-.1-.1-.1-.1-.1-.2-.1-.2-.2 0 0-.1-.1-.1-.1-.1-.1-.3-.2-.4-.2-.4-.2-.9-.3-1.3-.3l.3-1.3-.9.8-.2.2-.1-.1-.2-.3-.7-.2-.4-.1-.9-.3-.2-.1-.4.3-2.4-1.6s-.1-.1-.1-.1v-.1l-.9-1.6zm4.4-5.6c.1-.2.3-.4.5-.5s.3-.1.5-.2h.1.1.1.1.1.1.1.1s.1 0 .1.1h.1c.1 0 .1.1.2.1.3.3.5.6.5 1 0 .2.1.3.2.4l.7.8.3.4.1.1.1.1.1-.1.1.1.4-.3.1-.1.1-.1c.1 0 .1-.1.2-.1s.1 0 .2.1l.2.2v.1c0 .1 0 .2-.1.2l-.9.7h.2.1.2.1c.1 0 .2.1.2.1.1 0 .1.1.2.1h.1l.2.2.1.1.3.4c0 .1-.1.1-.1.2-.1.2-.2.3-.3.5-.1.3-.2.5-.3.8v.6c0 .3 0 .5.1.8v.2c0 .1.1.3.2.4.1.2.2.4.3.6s.1.1.1.1c.1.1.1.2.2.2-.1.1-.1.1-.1.2l-.5-.6-1.7-1.4-.7-.8c-.1-.1-.2-.3-.3-.5 0-.1 0-.2 0-.3s0-.1 0-.2c0 0 0 0 0-.1 0-.1 0-.2.1-.3l-.2.2-.4.3-.3.2c-.1 0-.1.1-.2.1s-.1 0-.2-.1l-.1-.1h-.1c-.1-.1-.1-.1 0-.2 0-.1 0-.2.1-.2l.2-.2v.1l.5-.4-.4-.5-.2-.2-.7-.9c-.1-.1-.2-.2-.4-.3-.3-.1-.5-.2-.7-.5-.4-.4-.5-1.1-.1-1.6zm13.9-5.3s.1-.1.1-.1.1-.1.1-.1.1-.1.1-.1.1-.1.1-.1.1-.1.1-.1h.1c.1 0 .1 0 .2-.1h.1.1.2.1.3c.1 0 .3.1.4.1 0 0 .1 0 .1.1s.1 0 .1.1c0 0 0 0 .1.1 0 0 0 0 .1.1 0 0 0 0 .1.1 0 0 0 0 .1.1v.1.1s0 .1.1.1v.1c0 .1 0 .1.1.2.1.3 0 .5 0 .7v.1c0 .1-.1.2-.1.2 0 .1-.1.1-.1.2v.1.2 1 .6h.2v.1h.5.1-.2c.1 0 .1 0 .2.1 0 0 .1.1.1.2v.2.1s-.1.1-.2.1h-.1-.6-.5s.1.1.1.1h.1s.1.1.1.1v.1c0 .1.1.1.1.2 0 .1 0 .1.1.2v.1.3.8.2.6.7.7 1 .2 1.7.1.1l-.2.3-.5 1.1-.5 1-.1.1v.1s0 0 0 0l-.3-.7-.8-1.6-.1-.2-.1-.1v-.1-.1-1.7-.2-1-.7-.7-.6-.2-.8c0-.2 0-.4.1-.5.1-.1.1-.2.2-.4s0-.1.1-.1c.1-.1.2-.1.2-.2h-.4-.4-.6c-.1 0-.1 0-.2-.1 0 0-.1-.1-.1-.2v-.1-.1c0-.1.1-.2.1-.2s.1-.1.1-.1.1 0 .1 0h.2s0 0-.1.1h.3.6v-.6-1.2c0-.1 0-.1 0-.2 0 0 0 0 0-.1v-.1s0-.1-.1-.1c-.1-.1-.1-.2-.2-.3 0-.1-.1-.3-.1-.5 0-.1 0-.2 0-.3v-.1c0-.1 0-.1.1-.2 0-.1 0-.1.1-.1zm16.3 5.3c.3.5.3 1.2-.1 1.7-.2.2-.4.4-.7.5-.2 0-.3.1-.4.3l-.7.9-.2.1-.4.4.5.4v-.1l.2.2c.1.1.1.2.1.2v.2l-.1.1-.1.1c0 .1-.1.1-.2.1s-.1 0-.2-.1l-.3-.2-.4-.3-.1-.2c0 .1.1.2.1.3v.1.2.3c-.1.2-.1.3-.3.5l-.8.8-1.5 1.8-.5.6c0-.1-.1-.2-.1-.2.1-.1.1-.2.2-.2 0 0 .1-.1.1-.1.1-.2.2-.4.3-.6.1-.1.1-.3.2-.4 0-.1 0-.2 0-.3.1-.3.1-.5.1-.8 0-.2 0-.4 0-.6 0-.3-.1-.6-.3-.8-.1-.2-.2-.3-.3-.5 0-.1-.1-.1-.1-.2l.3-.4.1-.1c.1-.1.1-.1.2-.2h.1c.1 0 .1-.1.2-.1.1 0 .2-.1.2-.1h.1.2.1.2l-.9-.7c-.1-.1-.1-.2-.1-.2v-.1l.2-.2s.1-.1.2-.1.1 0 .2.1l.1.1.1.1.4.3.1-.1.1.1.1-.1.1-.1.3-.4.7-.8c.1-.1.1-.3.2-.4 0-.4.2-.7.5-1 .1 0 .1-.1.2-.1h.1s.1 0 .1-.1h.1.1.1.1.1.1.1.1c.2 0 .4.1.5.2 0-.2.2 0 .3.2zm1.7 5.9s.1 0 .1-.1l2.1-.2h.5l-.3.6-.9 1.6v.1s-.1.1-.1.1l-2.4 1.6-.4-.3-.2.1-.9.3-.4.1-.7.2-.2.3-.1.1-.2-.2-.9-.8.3 1.3c-.4 0-.9.1-1.3.3-.1.1-.3.1-.4.2h-.1l-.1.1c-.1 0-.1.1-.2.2 0 0-.1.1-.1.1-.1.1-.1.1-.2.2 0 .1-.1.1-.1.2 0 0-.1.1-.1.2s-.1.1-.1.2-.1.1-.1.2-.1.1-.1.2v.1.1c0 .1 0 .2-.1.3s-.1 0-.1-.1c-.1 0-.1-.1-.2-.2 0 0 0 0-.1-.1s-.1-.2-.2-.3v-.1c0-.1 0-.2-.1-.3.1-.1.2-.1.2-.2.3-.1.6-.3.8-.6l.6-.5h.1l1.3-.9-.1-.1h.1l-.2-.3.1-.1.3-.4.5.8s0 0 0-.1 0-.1 0-.2c0-.1 0-.1 0-.2 0 0 0 0 0-.1s.1-.1.1-.2c0-.1.1-.1.1-.1.1-.1.1-.1.2-.1zm2.4 7.3c.1.2.2.3.2.5v.1.3c0 .1 0 .2-.1.3-.1.2-.2.4-.3.5-.1.2-.3.3-.5.4s-.3.1-.5.1c-.1 0-.2 0-.4 0-.1 0-.1 0-.2 0-.1 0-.2 0-.3 0l-1.8.7c0-.2 0-.4-.1-.7 0-.1 0-.2 0-.3s-.1-.2-.1-.3c-.1-.2-.1-.3-.2-.5-.1-.1-.1-.2-.2-.2l.4-.2.6-.2.3-.1.4-.2c.1 0 .1-.1.2-.1s.1-.1.1-.2c.2-.3.5-.5 1-.6h.2.1.1.1.1.1.1.1.1s.1 0 .1.1c.2.3.3.4.4.6zm-3.5 3.6v.1s0 .1-.1.1v.1s-.1.1-.1.1h-.1-.1c-.1 0-.1 0-.2 0v-.1c.1-.2.1-.4.2-.6 0 0 0 0 0-.1s0-.3 0-.4l.2.5v.1s0 0 0-.1zm-5.7 9.3v2 1.7.5 1h-.6-.4-1-1-1.2-3.2-4.9-3.2-1.4-2.2-.9v-1-.5-1.7-2-.3-.6-.9-.9-1.4-.1c0-.1 0-.3.1-.4l.3-.6c.1-.1.3-.3.4-.3h.1l.3-.2.4-.2.3.2.4.2s.1.1.1.1c.2.1.4.3.6.6.1.1.1.2.2.4h-.7s0 0-.1 0c-.4 0-.7.3-.8.6 0 .1-.1.2-.1.3 0 .4.2.7.6.9.1.1.3.1.4.1h.4.7.3.4 1 .1 2.1.7 3.7.7 2.1.1 1 .4.3.4.6c.1 0 .3 0 .4-.1h.1c.3-.2.6-.5.6-.9 0-.1 0-.2-.1-.3-.1-.3-.4-.5-.7-.6h-.1s0 0-.1 0h-.7c0-.1.1-.2.2-.4s.3-.4.6-.6c0 0 .1-.1.1-.1l.4-.2.3-.2.4.2.3.2h.1c.2.1.3.2.4.3.1.2.3.4.3.6 0 .1.1.3.1.4v.1 1.4.9.9.6.3zm-25.7-9s0-.1-.1-.1v-.1l.1-.2v.1-.1l.2-.5v.4.1c0 .2.1.4.2.6v.1c-.1 0-.1 0-.2 0h-.1-.1s-.1 0-.1-.1c.1-.1.1-.2.1-.2zm8.1-10.1c0-.1-.1-.1-.1-.2-.1-.3-.1-.6 0-.8.1-.4.4-.7.8-.9.1-.1.3-.1.5-.1h.1c.1 0 .2 0 .3.1h.1.1.1s.1 0 .1.1.1 0 .1.1c0 0 0 0 .1.1 0 0 .1.1.1.1v.1c0 .1.1.1.1.2.1.2.2.4.2.5 0 .2 0 .4-.1.6v.4.1l.6 1.8h.1v.1l.4-.1c-.2.3-.3.6-.3.9l-.1-.2h.1c.1 0 .1 0 .2.1v.1.1.1c0 .7.3 1.3.8 1.7v.5 4.6l-.5-.3-.7-.4c-.1-.4-.3-.9-.5-1.2l-.6-1.9-.5-1.6c0-.1 0-.2-.1-.3 0-.1 0-.1 0-.2 0 0 0 0 0-.1s0-.2 0-.2c0-.1.1-.2.1-.2s0 0 0-.1c0 0 0-.1.1-.1 0-.1.1-.1.1-.2l-.3.1-.6.2-.2.1c-.1 0-.1 0-.2 0 0 0 0 0-.1 0s-.1-.1-.1-.1v-.1-.1c0-.1 0-.2.1-.2 0 0 0-.1.1-.1s.1-.1.1-.1l.2-.1v.1l.6-.2-.7-1.9c0-.2-.2-.3-.3-.4 0 0-.1-.1-.1-.1 0-.1-.1-.3-.2-.4zm13.5-2c0-.1 0-.1 0 0 .2 0 .3-.1.4-.1h.1c.2 0 .3.1.5.1.4.2.6.5.8.9.1.3.1.5 0 .8 0 .1-.1.2-.1.2-.1.1-.2.3-.3.4 0 0-.1.1-.1.1-.1.2-.2.3-.2.5l-.6 1.9.6.1v-.1l.2.1s.1 0 .1.1 0 .1.1.1c.1.1.1.2.1.2v.1.1c0 .1-.1.1-.1.1s0 0-.1 0c0 0-.1 0-.2 0l-.2-.1-.6-.2-.3-.1s.1.1.1.2c0 0 .1.1.1.1v.1c0 .1.1.2.1.2v.2.1.2c0 .1 0 .2-.1.3l-.5 1.6-.6 1.9c-.2.4-.4.8-.5 1.2l-.7.4-.5.3-1.5.9-.3-1.5c0-.1 0-.1 0-.2l1.4-4.5.3-1c0-.1.1-.2.1-.2s0 0 0-.1.1-.1.1-.2c.1-.1.1-.1.2-.2h.1c.1 0 .1-.1.2-.1h.1c.1 0 .1 0 .2-.1h.1l-.2-.1-.8-.2h-.1c-.1 0-.2-.1-.2-.2v-.1l.1-.2c0-.1.1-.1.1-.1h.2.1.1.1l.3.1v-.1h.1l.6-1.8v-.1c0-.1 0-.2 0-.4-.1-.2-.1-.4-.1-.6s.1-.4.2-.5c0-.1.1-.1.1-.2 0 0 0 0 0-.1 0 0 .1-.1.1-.1s0 0 .1-.1c0 0 .1 0 .1-.1s.1 0 .1-.1h.1.1c.2.2.2.2.3.2zm-19.9 8.3c-.1.1-.2.2-.3.2s-.1.1-.1.1v-.1-.1l.1-.1c0-.1.1-.1.1-.1h.1.1.1c0 .1-.1.1-.1.1zm5.7 5.8-.4-.2-.1-.1h-.1l-.1-.1c-.1-.1-.2-.1-.3-.2-.2-.2-.4-.3-.5-.6 0-.1-.1-.2-.1-.3-.1-.2-.1-.3-.1-.5v-.1c0-.2 0-.5.1-.7 0-.1.1-.2.2-.3.1-.2.2-.3.4-.4 0 0 0 0 .1-.1s.3-.2.5-.2c.2-.1.4-.1.6-.1.6 0 1.1.3 1.4.7.2.3.4.7.4 1.1v.1.1.3c-.1.4-.3.7-.6.9-.1.1-.2.2-.4.3l-.1.1-.5.2zm3.6 2.4c0-.1 0-.2 0-.3s-.1-.2-.1-.3c-.1-.5-.4-.9-.7-1.3.1-.1.2-.2.3-.4.2-.2.3-.5.4-.7l1.6 1 .7.4.7.4c.1 0 .1.1.1.1l.4.7v.1l-.2.2h-.3-2-.7-.2zm8.4 0h-1.9-.4-.4l.2-.2v-.1l.4-.7c0-.1.1-.1.1-.1l.7-.4.7-.4 1.6-1c.1.2.2.5.4.7.1.1.2.3.3.4-.3.4-.5.8-.7 1.3 0 .1-.1.2-.1.3v.3h-.4-.5zm10.7-7.9v.1-.1c-.1 0-.1 0 0 0-.2-.1-.3-.2-.3-.2-.1 0-.1-.1-.2-.1h.1.1.1c.1 0 .1.1.1.1l.1.1zm-5.7 5.3-.4.2-.1-.1-.5-.2-.1-.1c-.1-.1-.3-.2-.4-.3-.3-.2-.5-.6-.6-.9 0-.1 0-.2 0-.3v-.1-.1c0-.4.1-.8.4-1.1.3-.4.8-.7 1.4-.7.2 0 .4 0 .6.1s.3.1.5.2c0 0 0 0 .1.1l.4.4c.1.1.1.2.2.3.1.2.1.4.1.7v.1c0 .2 0 .4-.1.5 0 .1-.1.2-.1.3-.1.2-.3.4-.5.6-.1.1-.2.2-.3.2l-.3.1h-.1zm-10.7-8.3c-.1 0-.3-.1-.3-.3v-.1-.1c0-.1.1-.2.1-.2s.1-.1.1-.1l.1.3c.1.1.2.2.3.4 0 .1.1.1.1.2h-.1-.3zm-10.7 6.7c-.1 0-.1-.1-.2-.1-.1-.1-.2-.2-.3-.3s-.1-.2-.1-.3c-.1-.2-.1-.4-.1-.6 0-.2.1-.4.2-.6.1-.1.1-.2.2-.3 0 0 .1-.1.1-.1.1-.1.2-.2.3-.2h.1.1.1.1.1.1.1.1.1.1.1c.1 0 .1.1.2.1v.1s0 0-.1.1c0 0-.1.1-.1.1-.3.4-.5.9-.5 1.5v.4.2.2.2h-.1-.1c-.3-.2-.4-.3-.5-.4zm24.8.2c0-.1 0-.2 0-.2 0-.1 0-.1 0-.2 0-.1 0-.1 0-.2s0-.2 0-.4c-.1-.5-.3-1-.5-1.5s-.1-.1-.1-.1 0 0-.1-.1c0 0 0 0 0-.1.1 0 .1-.1.2-.1h.1.1.1.1.1.1.1.1.1.1.1c.1.1.2.1.3.2s.1.1.1.1c.1.1.1.2.2.3.2.3.2.6.2.9 0 .1 0 .2-.1.3 0 .1-.1.2-.1.3-.1.1-.2.2-.3.3-.1 0-.1.1-.2.1-.1.1-.3.1-.4.2h-.1c-.1.2-.2.2-.2.2zm-11.2-6.6c.1 0 .1-.1.2-.1 0 0 .1.1.1.1v.1.1l-1.2 4-.2.7c-.1.4-.1.7-.1 1.1l.3 1.7.1.7c0 .1-.1.1-.1.1s0 0-.1-.1c0 0 0-.1-.1-.1-.2-.2-.4-.4-.7-.6h-.1l-.4-.7-.1-.1c0-.1 0-.1 0-.2v-5.8c0-.2 0-.4.1-.5 0-.1.1-.1.1-.2s.1-.2.2-.2c.2.1.4.2.6.2s.3.1.5.1c.3 0 .6-.1.9-.3zm3.1-9.3c-.2.3-.4.5-.6.7v-.8-.4l.1.1zm-7.4 0v.8c-.2-.2-.3-.4-.5-.6v-.1l.5-.3.1-.1v.3zm24.5 9.2h.2l2 .6.4.1-.5.4-1.4 1.1-.1.1s-.1.1-.1.1l-.3.1c0-.2-.1-.4-.1-.5-.1-.2-.2-.4-.3-.6-.2-.4-.5-.7-.9-1 0 0-.1 0-.1-.1 0 0 0 0-.1 0zm-2.1-12.2h.5l-.3.6-.9 1.6v.1s-.1.1-.1.1l-.9.6c.1-.2.1-.5.1-.7s0-.5-.1-.7c-.1-.5-.3-.9-.5-1.3s.1 0 .1-.1zm-8.2-2.7s.1-.1.1-.1l1.9-.8.4-.2-.1.6-.3 1.8v.1c0 .1 0 .1-.1.1l-.1.2h-.1c-.1 0-.2.1-.3.1 0 0-.1 0-.1.1-.1.1-.3.2-.4.3-.5.4-.9 1-1.1 1.6l-.2.2c-.1 0-.1 0-.2 0-.1 0-.1 0-.2 0-.6.1-1.1.3-1.5.8l-.2.2c-.1.1-.1.1-.1.2l-.4-.1.3.4c-.2.3-.2.7-.2 1.1-.1.1-.3.2-.4.3s-.1.1-.2.2c-.2 0-.3-.1-.5-.1-.1 0-.2 0-.4 0s-.4 0-.6.1c.1 0 .2-.1.3-.2l.9-1.2.1-.1-.1-.1v-.1l-.3-.2-.1-.1-.1-.1s-.1-.1-.1-.1l.1-.1.1-.2h.1.1l.3.2.5.4c0-.1 0-.1 0-.2 0-.1 0-.1 0-.2s0 0 0-.1 0-.1 0-.2 0 0 0-.1v-.1s0 0 0-.1.1-.1.1-.2zm-6.2-1.5 1.6-1.3.4-.3.1.6.2 1.8v.1.2l-1.2 2.9h-.2l-.6 1-.2.4-.4.6v.3c-.1 0-.2.1-.3.1h.1-.8v-.1c.1-.1.1-.1.2-.2 0 0 .1-.1.1-.2 0 0 0 0 0-.1.2-.3.3-.6.4-.9 0-.1 0-.3 0-.4v-.2c0-.1 0-.2 0-.3s0-.2-.1-.3c-.1-.3-.2-.6-.4-.8 0 0-.1-.1-.1-.1s-.1 0-.1-.1l.4-1 .6-1.6c.2 0 .3-.1.3-.1zm-5.8-4.7.9-1.7.1-.1.2-.5.2.4 1 1.8v.1 2.3c-.2-.1-.4-.1-.5-.2-.3.1-.5.1-.7.1s-.5 0-.7.1c-.2 0-.4.1-.5.2v-2.4c-.1 0-.1-.1 0-.1zm-5.6 5.5.2-1.8.1-.6.4.3 1.6 1.3s.1.1.1.1l.7 1.8.3.8s-.1.1-.1.1c-.4.4-.6 1-.6 1.5v.1.1c0 .5.2.9.4 1.3 0 0 0 .1.1.1l.3.3v.1h-.8.1c-.1 0-.2 0-.3-.1v-.3l-.4-.6-.2-.4-.6-1h-.2l-1.2-2.9c.1 0 .1-.1.1-.2zm-6.1-.3 1.9.9s.1.1.1.1l3 4c0 .1.1.1.1.2v.1.1.1.2.1.2.2l.5-.4.3-.2h.1.1l.1.2.1.1c0 .1 0 .1-.1.1l-.1.1-.1.1-.1.2v.1l.1.1.9 1.2c.1.1.2.2.3.2-.2 0-.4-.1-.6-.1-.1 0-.2 0-.4 0-.2 0-.3.1-.5.1-.1-.1-.1-.1-.2-.2s-.3-.2-.4-.3c0-.4-.1-.7-.2-1l.3-.4-.4.1c0-.1-.1-.1-.1-.2l-.2-.2c-.4-.5-.9-.7-1.5-.8-.1 0-.1 0-.2 0-.1 0-.1 0-.2 0l-.3-.2c-.2-.6-.6-1.2-1.1-1.6-.1-.1-.3-.2-.4-.3 0 0-.1-.1-.2-.1s-.2-.1-.3-.1h-.1l-.1-.2s-.1-.1-.1-.1v-.1l-.3-1.8-.1-.6zm-5.3 6s-.1-.1-.1-.1v-.1l-.9-1.6-.3-.6h.5l2.1.2c.1 0 .1 0 .1.1-.2.4-.4.8-.5 1.3 0 .2-.1.5-.1.7s0 .5.1.7zm-3.6 12.2-1.4-1.2-.5-.4.4-.1 2-.6h.1.1l1.3.3s0 0-.1 0c0 0-.1.1-.1.1-.3.2-.6.6-.9.9-.1.2-.2.4-.3.6s-.1.3-.1.5l-.3-.1c-.1.1-.1.1-.2 0zm3.3 7.5-1.4-1.1-.5-.4.4-.1 2-.6h.1.1l.5.1c.3.3.6.6 1 .8h.1.1c.3.1.5.2.8.2.4 0 .7-.1 1-.3l2 .8v.1c.1.3.2.6.4.8-.1.2-.1.4-.1.7v.4.1.5l-.5-.2.1-.3.1-.4.1-.3c-.1.1-.1.1-.2.2-.1.1-.2.1-.3.1h-.1c-.1 0-.1 0-.2 0s-.2 0-.2 0l-4.9-1c-.2 0-.3 0-.4-.1zm1.5 4.7 1.7-1.2s.1 0 .1-.1l1.2-.1.8.3.6.2.6.2v.9.5h-.3-.9c-.3 0-.6.1-.9.2l-.9.1h-.1-.1l-.8-.2-.8-.3-.6-.2zm33.8.5-.8.3-.8.3h-.1-.1l-1-.1c-.3-.1-.6-.2-.9-.2h-.9-.3v-.5-.9l.6-.2.6-.2.8-.3 1.2.1c.1 0 .1 0 .1.1l1.7 1.2.4.3zm1.6-5.2s-.1.1-.1.1l-4.9 1c-.1 0-.2 0-.2 0-.1 0-.1 0-.2 0h-.1c-.1 0-.2-.1-.3-.1-.1-.1-.1-.1-.2-.2l.1.3.1.4.1.3-.7.1v-.5s0 0 0-.1 0-.3 0-.4c0-.2-.1-.5-.1-.7.2-.2.3-.5.4-.8v-.1l2-.8c.3.2.7.3 1 .3s.6-.1.8-.2h.1.1c.4-.2.7-.4 1-.8l.5-.1h.1.1l2 .6.4.1-.5.4z" fill="#041256"/></g></svg>